<svg width="29" height="30" viewBox="0 0 29 30" fill="none" xmlns="http://www.w3.org/2000/svg">
<path d="M14.3085 29.5603C22.2109 29.5603 28.617 23.1463 28.617 15.2342C28.617 7.32219 22.2109 0.908203 14.3085 0.908203C6.40615 0.908203 0 7.32219 0 15.2342C0 23.1463 6.40615 29.5603 14.3085 29.5603Z" fill="#3A3A3A"/>
<path d="M10.0345 15.6371L10.7862 14.8247C11.8607 13.6626 11.9203 11.9228 11.0095 10.6943C10.9763 10.6411 10.9365 10.5902 10.8901 10.5437L10.8857 10.5393C10.7994 10.4375 10.7088 10.3379 10.6071 10.2427C10.5651 10.2051 10.5231 10.1697 10.4811 10.1342C9.81563 9.47017 8.56872 8.21952 7.7883 7.43814C7.6866 7.32968 7.58047 7.22343 7.48099 7.11496C7.40361 7.03085 7.33065 6.96444 7.25769 6.90689C7.22232 6.87369 7.14937 6.81392 7.04325 6.7608C7.02998 6.75416 7.01892 6.74752 7.00565 6.74309C6.99681 6.73866 6.98797 6.73645 6.98134 6.73202C6.88406 6.68997 6.7912 6.67004 6.70277 6.67226C6.6895 6.67226 6.67624 6.67004 6.66076 6.67004C6.43747 6.67004 6.21639 6.75416 6.04616 6.9246L5.08886 7.88306C4.93853 8.03358 4.85894 8.22838 4.84125 8.42538C4.78156 8.6733 4.86998 8.94114 5.22151 9.24661L7.93863 11.967C8.11992 12.1486 8.22604 12.4031 8.1973 12.6577C8.1973 12.6599 8.1973 12.6621 8.1973 12.6621C8.17961 12.806 8.13761 12.9454 8.0757 13.0827C8.03591 13.1712 7.97621 13.2487 7.90768 13.3173L2.80285 18.4284C2.76527 18.4638 2.7277 18.4992 2.69011 18.5346C2.61273 18.6055 2.54862 18.6741 2.49334 18.7405L2.47787 18.756C2.37838 18.8556 2.31206 18.9729 2.27226 19.0969C2.27005 19.1057 2.26783 19.1146 2.26562 19.1234C2.25678 19.1566 2.24573 19.1876 2.23909 19.2208C2.23467 19.2474 2.23247 19.2739 2.23247 19.3005C2.21257 19.5462 2.29216 19.7986 2.48008 19.9867L2.9532 20.4604C3.05711 20.5711 3.1588 20.6751 3.2605 20.7681C3.69824 21.2064 4.40572 21.2064 4.84346 20.7681" fill="#DFCF55"/>
<path d="M18.5813 14.7694L17.8297 15.5818C16.7552 16.7439 16.6955 18.4837 17.6064 19.7122C17.6395 19.7654 17.6793 19.8163 17.7257 19.8628L17.7302 19.8672C17.8164 19.969 17.907 20.0686 18.0087 20.1638C18.0507 20.2014 18.0927 20.2368 18.1348 20.2723C18.8002 20.9363 20.0471 22.187 20.8275 22.9684C20.9292 23.0768 21.0354 23.1831 21.1349 23.2915C21.2122 23.3756 21.2852 23.442 21.3582 23.4996C21.3935 23.5328 21.4665 23.5926 21.5726 23.6457C21.5859 23.6523 21.5969 23.659 21.6102 23.6634C21.619 23.6678 21.6279 23.67 21.6345 23.6745C21.7318 23.7165 21.8246 23.7364 21.9131 23.7342C21.9263 23.7342 21.9396 23.7365 21.9551 23.7365C22.1784 23.7365 22.3995 23.6523 22.5697 23.4819L23.527 22.5234C23.6773 22.3729 23.7569 22.1781 23.7746 21.9811C23.8343 21.7332 23.7458 21.4654 23.3943 21.1599L20.6772 18.4394C20.4959 18.2579 20.3898 18.0034 20.4185 17.7488C20.4185 17.7466 20.4185 17.7444 20.4185 17.7444C20.4362 17.6005 20.4782 17.4611 20.5401 17.3238C20.5799 17.2353 20.6396 17.1578 20.7082 17.0892L25.813 11.9781C25.8506 11.9427 25.8881 11.9073 25.9257 11.8719C26.0031 11.801 26.0672 11.7324 26.1225 11.666L26.138 11.6505C26.2375 11.5509 26.3038 11.4336 26.3436 11.3096C26.3458 11.3008 26.348 11.2919 26.3502 11.2831C26.3591 11.2499 26.3701 11.2189 26.3767 11.1857C26.3812 11.1591 26.3834 11.1325 26.3834 11.106C26.4033 10.8603 26.3237 10.6079 26.1358 10.4198L25.6626 9.94609C25.5587 9.83541 25.457 9.73137 25.3553 9.6384C24.9176 9.20012 24.2101 9.20012 23.7724 9.6384" fill="#DFCF55"/>
<path d="M13.8083 10.9311L14.6175 11.6859C15.776 12.7661 17.5115 12.8303 18.7407 11.9228C18.7938 11.8896 18.8446 11.8497 18.891 11.8055L18.8955 11.801C18.9972 11.7147 19.0989 11.6239 19.1917 11.5243C19.2293 11.4823 19.2647 11.4402 19.3 11.3982C19.9655 10.7341 21.2191 9.48788 22.0017 8.71092C22.11 8.6091 22.2161 8.50506 22.3245 8.40324C22.4085 8.32577 22.4748 8.25272 22.5323 8.18189C22.5655 8.14647 22.6251 8.07342 22.6782 7.96717C22.6848 7.95389 22.6915 7.94282 22.6959 7.92954C22.7003 7.92069 22.7025 7.91184 22.7069 7.90519C22.7489 7.8078 22.7688 7.71483 22.7688 7.62629C22.7688 7.613 22.7711 7.59972 22.7711 7.58423C22.7711 7.36066 22.6871 7.13931 22.519 6.96886L21.5639 6.00819C21.4136 5.85545 21.2213 5.77576 21.0223 5.75806C20.7747 5.69608 20.5072 5.78462 20.1999 6.13657L17.4739 8.84816C17.2926 9.02967 17.0384 9.13592 16.7841 9.10493C16.7819 9.10493 16.7797 9.10493 16.7797 9.10493C16.636 9.08723 16.4967 9.04295 16.3596 8.98098C16.2712 8.94113 16.1938 8.88136 16.1253 8.81274L11.036 3.6884C11.0006 3.65077 10.9652 3.61313 10.9298 3.5755C10.8591 3.49803 10.7928 3.43384 10.7264 3.37629L10.711 3.36079C10.6115 3.26118 10.4943 3.19478 10.3705 3.15272C10.3616 3.15051 10.3528 3.14829 10.344 3.14386C10.3108 3.13501 10.2798 3.12394 10.2467 3.1173C10.2202 3.11288 10.1936 3.11066 10.1671 3.10845C9.92168 3.08853 9.66965 3.166 9.47952 3.35415L9.00639 3.82564C8.89364 3.92967 8.78974 4.03149 8.69689 4.13332C8.25914 4.56939 8.25692 5.27772 8.69246 5.71821" fill="#DFCF55"/>
<path d="M14.702 19.5352L13.8928 18.7803C12.7343 17.7001 10.9988 17.6359 9.76961 18.5435C9.71654 18.5767 9.6657 18.6165 9.61927 18.6608L9.61484 18.6652C9.51315 18.7516 9.41145 18.8423 9.3186 18.9419C9.28102 18.984 9.24564 19.0261 9.21027 19.0681C8.54481 19.7322 7.29126 20.9784 6.50862 21.7553C6.40029 21.8572 6.29418 21.9612 6.18585 22.063C6.10184 22.1405 6.03551 22.2136 5.97803 22.2844C5.94487 22.3198 5.88517 22.3928 5.83211 22.4991C5.82548 22.5124 5.81884 22.5234 5.81442 22.5367C5.81 22.5456 5.80779 22.5544 5.80337 22.5611C5.76136 22.6585 5.74147 22.7514 5.74147 22.84C5.74147 22.8533 5.73926 22.8665 5.73926 22.882C5.73926 23.1056 5.82327 23.327 5.9913 23.4974L6.94638 24.4581C7.09672 24.6108 7.28905 24.6905 7.48802 24.7082C7.73564 24.7702 8.00315 24.6816 8.31046 24.3297L11.0364 21.6181C11.2177 21.4366 11.472 21.3303 11.7262 21.3613C11.7284 21.3613 11.7306 21.3613 11.7306 21.3613C11.8743 21.379 12.0136 21.4233 12.1507 21.4853C12.2391 21.5251 12.3165 21.5849 12.385 21.6535L17.4744 26.7779C17.5097 26.8155 17.5451 26.8531 17.5805 26.8908C17.6512 26.9682 17.7176 27.0324 17.7839 27.09L17.7994 27.1055C17.8988 27.2051 18.016 27.2715 18.1398 27.3136C18.1487 27.3158 18.1575 27.318 18.1664 27.3224C18.1995 27.3313 18.2305 27.3423 18.2636 27.349C18.2902 27.3534 18.3167 27.3556 18.3432 27.3578C18.5886 27.3777 18.8407 27.3003 19.0308 27.1121L19.5039 26.6406C19.6167 26.5366 19.7206 26.4348 19.8134 26.3329C20.2512 25.8969 20.2534 25.1885 19.8179 24.7481" fill="#DFCF55"/>
<path d="M14.3698 13.8287L13.7796 13.3483L13.1804 12.8149C13.3949 13.5011 13.2777 14.278 12.7913 14.8801L12.3138 15.4733L11.708 16.1595C12.4486 15.8275 13.344 15.9138 14.0183 16.4606L14.6086 16.9409L15.4067 17.6515C15.1061 16.9232 15.1989 16.0577 15.7273 15.4003L16.2048 14.8071L16.9057 14.0146C16.1297 14.4772 15.1149 14.433 14.3698 13.8287Z" fill="white"/>
</svg>
