<svg width="24" height="25" viewBox="0 0 24 25" fill="none" xmlns="http://www.w3.org/2000/svg">
<path d="M22.6345 11.8166C21.298 12.4159 19.7557 12.2374 18.6606 11.3492C17.2648 10.2166 17.2874 8.49264 17.2942 8.2804" fill="#CCA479"/>
<path d="M17.2943 8.28041L17.2891 8.27701C19.4078 7.24729 22.6068 8.40954 22.6523 11.7805L22.6782 11.7974C22.6696 11.8015 22.6606 11.8052 22.6519 11.8092C22.6519 11.8157 22.6519 11.8219 22.6516 11.828L22.6346 11.8166" fill="#8C5430"/>
<path d="M20.8697 1.89545C19.9861 0.330634 18.2815 0.0649384 18.071 0.0358975L18.0685 0.0300293C16.6987 1.9458 17.3107 5.29293 20.628 5.90094L20.6404 5.92936C20.646 5.92132 20.6509 5.91329 20.6562 5.90526C20.6623 5.90618 20.6685 5.90742 20.675 5.90835L20.6667 5.8895C21.4811 4.67287 21.5627 3.12289 20.8697 1.89545Z" fill="#B68259"/>
<path d="M21.1652 7.69338C21.1661 7.68442 21.1664 7.67515 21.167 7.66619C21.1723 7.6631 21.1779 7.66032 21.1831 7.65723L21.1683 7.64827C21.2715 6.26202 20.6558 5.0627 19.575 4.5619C18.1971 3.9233 16.7472 4.73583 16.5701 4.83902L16.5654 4.83624" fill="#C18E68"/>
<path d="M16.5655 4.8363C16.3343 7.07029 18.2812 9.19337 21.143 7.67984L21.1652 7.69375" fill="#A46139"/>
<path d="M18.1105 0.00556269L18.1074 0C20.4302 0.0395451 22.7245 2.48918 21.2594 5.4736L21.2746 5.50017" fill="#A46139"/>
<path d="M23.0608 8.78338C23.0596 8.77596 23.0577 8.76855 23.0562 8.76144C23.0602 8.75835 23.0642 8.75557 23.0683 8.75279L23.0531 8.74692C22.83 7.62205 22.0165 6.71838 20.9523 6.42241C19.5957 6.04488 18.5044 6.84134 18.3721 6.94175" fill="#A46139"/>
<path d="M18.3728 6.94143L18.3682 6.93958C18.6711 8.75896 20.8646 10.274 23.0387 8.77441L23.0613 8.78336" fill="#C18E68"/>
<path d="M23.3053 4.75494C22.4216 3.19013 20.717 2.92444 20.5065 2.8954L20.5041 2.88953C19.1342 4.8053 19.7462 8.15242 23.0636 8.76043L23.0759 8.78886C23.0815 8.78082 23.0864 8.77279 23.0917 8.76476C23.0979 8.76569 23.1041 8.76692 23.1106 8.76784L23.1022 8.749C23.9166 7.53237 23.9986 5.98239 23.3053 4.75494Z" fill="#8C5430"/>
<path d="M20.4966 2.87757L20.4941 2.8717C22.8917 3.13647 24.9545 5.84778 23.0614 8.74014L23.0737 8.76856" fill="#A26038"/>
<path d="M18.9118 18.6427C18.9025 18.6403 18.8935 18.6372 18.8842 18.6347C18.8799 18.6393 18.8762 18.6443 18.8719 18.6492L18.866 18.6295C17.4581 18.225 16.3952 17.094 16.1322 15.709C15.7968 13.9434 16.9275 12.6408 17.0696 12.4833" fill="#A26038"/>
<path d="M17.0702 12.4832L17.0684 12.4771C19.3515 13.0569 21.045 16.0086 18.9037 18.6127L18.9127 18.6424" fill="#8C5430"/>
<path d="M21.1445 12.8457C21.1538 12.8432 21.1628 12.8401 21.172 12.8377C21.1764 12.8423 21.1801 12.8472 21.1844 12.8522L21.1903 12.8324C22.5981 12.428 23.6611 11.2969 23.9241 9.91194C24.2595 8.14631 23.1288 6.84379 22.9867 6.68623L22.9885 6.68005" fill="#A46139"/>
<path d="M22.9883 6.68005C20.7051 7.25995 19.0117 10.2116 21.153 12.8157L21.144 12.8454" fill="#B68259"/>
<path d="M20.438 14.4995C21.4119 13.5071 21.7157 12.1938 21.2135 11.114C20.5733 9.73768 18.9411 9.42286 18.7393 9.38733" fill="#BA6E41"/>
<path d="M18.7387 9.38733L18.7369 9.38208C17.1179 10.9398 17.2344 13.817 20.3979 14.5069L20.4059 14.5319C20.4124 14.5254 20.4186 14.5189 20.4251 14.5124C20.431 14.5137 20.4371 14.5149 20.443 14.5158L20.4374 14.4995" fill="#C18E68"/>
<path d="M21.1763 16.5687L21.1686 16.5545C21.7243 15.5511 21.6863 14.3363 21.0647 13.4237C20.2722 12.2602 18.9243 12.1647 18.7583 12.1561L18.7559 12.1517" fill="#C18E68"/>
<path d="M18.7565 12.1517C17.8132 13.7369 18.5108 16.3092 21.1398 16.566L21.1513 16.5873C21.155 16.5808 21.1584 16.574 21.1621 16.5675C21.167 16.5678 21.172 16.5684 21.1769 16.5687" fill="#B68259"/>
<path d="M21.1582 16.6015C21.1675 16.5991 21.1764 16.596 21.1857 16.5935C21.19 16.5981 21.1937 16.6031 21.1981 16.608L21.204 16.5883C22.6118 16.1839 23.6747 15.0528 23.9378 13.6678C24.2731 11.9022 23.1425 10.5997 23.0003 10.4421L23.0022 10.4359" fill="#CCA479"/>
<path d="M23.003 10.4359C20.7198 11.0158 19.0263 13.9675 21.1677 16.5716L21.1587 16.6012" fill="#8C5430"/>
<path d="M8.88045 22.026L8.88571 22.0297C9.06776 19.6821 6.81332 17.1326 3.65914 18.3258L3.63379 18.3079" fill="#79AC86"/>
<path d="M10.6603 18.0789C11.883 16.7612 13.6024 16.8978 13.8138 16.9185L13.8178 16.9132C14.7061 19.0944 13.3344 22.2083 9.96669 22.0312L9.94783 22.056C9.94443 22.047 9.94134 22.038 9.93794 22.0291C9.93176 22.0285 9.92527 22.0282 9.91909 22.0275L9.93145 22.0112C9.42147 20.6388 9.7015 19.1123 10.6603 18.0789Z" fill="#8BC79A"/>
<path d="M17.3753 19.4388C18.1035 18.1067 17.3883 16.607 17.2971 16.4235L17.3002 16.4192C15.0853 16.0414 12.8377 17.8428 14.1596 20.797L14.1445 20.8183C14.1535 20.8195 14.1624 20.8208 14.1714 20.822C14.1742 20.8276 14.1766 20.8331 14.1791 20.8387L14.189 20.8245C15.5663 21.0188 16.8042 20.4837 17.3753 19.4388Z" fill="#BA6E41"/>
<path d="M15.4283 20.6905C15.8947 19.3623 15.1715 18.2214 15.08 18.0826L15.0821 18.078C13.2459 18.26 11.5889 20.3478 12.9424 22.6152L12.9318 22.6371C12.9393 22.6362 12.9467 22.635 12.9541 22.634C12.9569 22.6384 12.9594 22.6424 12.9621 22.6467L12.9689 22.6322C14.1067 22.4839 15.0623 21.7322 15.4283 20.6905Z" fill="#79A084"/>
<path d="M12.9248 22.6516C12.9322 22.6575 12.9403 22.663 12.9477 22.6689C12.9464 22.6751 12.9449 22.6813 12.9433 22.6874L12.9625 22.6803C14.1237 23.5729 15.6654 23.7567 16.9364 23.1462C18.5569 22.368 18.9346 20.6855 18.9772 20.4775" fill="#A26038"/>
<path d="M18.9776 20.4779L18.9837 20.4758C17.1617 18.9833 13.78 19.3728 12.9542 22.6412L12.9248 22.6517" fill="#79AC86"/>
<path d="M11.1694 17.5487C10.0425 16.5311 8.41706 16.8783 8.21708 16.9243L8.21337 16.9203C7.33094 18.9859 8.56201 21.5897 11.7437 20.9904L11.7607 21.0102C11.7641 21.0018 11.7672 20.9932 11.7706 20.9848C11.7765 20.9836 11.7826 20.9823 11.7885 20.9811L11.7771 20.9681C12.2868 19.6746 12.0534 18.347 11.1694 17.5487Z" fill="#8EB693"/>
<path d="M10.2363 23.302C11.9768 23.7528 13.3516 22.7113 13.5182 22.58L13.5244 22.5822C13.096 20.2666 10.2614 18.383 7.52044 20.3469L7.49139 20.3361C7.49324 20.3454 7.49571 20.3547 7.49757 20.3642C7.49262 20.3683 7.48737 20.3717 7.48242 20.3757L7.50158 20.3828C7.81221 21.8135 8.87113 22.9483 10.2363 23.302Z" fill="#79A084"/>
<path d="M1.36523 11.8327C2.7017 12.4321 4.24402 12.2535 5.3391 11.3653C6.73491 10.2327 6.71235 8.50875 6.70555 8.29651" fill="#CCA479"/>
<path d="M6.70616 8.2964L6.71142 8.293C4.59266 7.26328 1.39366 8.42554 1.34823 11.7964L1.32227 11.8134C1.33092 11.8175 1.33988 11.8212 1.34854 11.8252C1.34854 11.8317 1.34854 11.8378 1.34885 11.844L1.36585 11.8326" fill="#BA6E41"/>
<path d="M3.13003 1.91119C4.0137 0.346377 5.71828 0.0806855 5.92877 0.0516445L5.93124 0.0457764C7.30109 1.96155 6.68911 5.30868 3.37173 5.91668L3.35937 5.9451C3.35381 5.93707 3.34886 5.92904 3.34361 5.921C3.33742 5.92193 3.33124 5.92317 3.32475 5.9241L3.3331 5.90525C2.51867 4.68862 2.43676 3.13894 3.13003 1.91119Z" fill="#B68259"/>
<path d="M2.83433 7.70949C2.8334 7.70053 2.8331 7.69126 2.83248 7.6823C2.82722 7.67921 2.82166 7.67643 2.81641 7.67334L2.83124 7.66438C2.72801 6.27814 3.3437 5.07881 4.42456 4.57801C5.80245 3.93942 7.25235 4.75194 7.42945 4.85513L7.43409 4.85235" fill="#C18E68"/>
<path d="M7.43472 4.85229C7.66591 7.08629 5.71901 9.20936 2.85722 7.69584L2.83496 7.70974" fill="#A46139"/>
<path d="M5.89002 0.0213098L5.89311 0.0157471C3.57036 0.0552922 1.27604 2.50493 2.74109 5.48935L2.72595 5.51592" fill="#A46139"/>
<path d="M0.939058 8.79912C0.940295 8.79171 0.94215 8.78429 0.943695 8.77719C0.939677 8.7741 0.935659 8.77132 0.931641 8.76854L0.946785 8.76267C1.16994 7.6378 1.98344 6.73413 3.04761 6.43816C4.40417 6.06063 5.49554 6.85709 5.62783 6.9575" fill="#A46139"/>
<path d="M5.62791 6.95742L5.63255 6.95557C5.32965 8.77495 3.1361 10.29 0.962015 8.79009L0.939453 8.79905" fill="#C18E68"/>
<path d="M0.694485 4.77069C1.57815 3.20588 3.28274 2.94019 3.49322 2.91115L3.49569 2.90527C4.86554 4.82105 4.25356 8.16817 0.936189 8.77618L0.923825 8.8046C0.918261 8.79657 0.913316 8.78854 0.908061 8.78051C0.90188 8.78143 0.895699 8.78266 0.889208 8.78359L0.897554 8.76475C0.083123 7.54812 0.00121422 5.99844 0.694485 4.77069Z" fill="#8C5430"/>
<path d="M3.50363 2.89332L3.50611 2.88745C1.10856 3.15222 -0.954253 5.86353 0.938873 8.75557L0.926509 8.78399" fill="#A26038"/>
<path d="M5.08789 18.6585C5.09716 18.656 5.10613 18.6529 5.1154 18.6505C5.11973 18.6551 5.12344 18.66 5.12776 18.665L5.13363 18.6452C6.5415 18.2408 7.60444 17.1097 7.86747 15.7247C8.20282 13.9591 7.0722 12.6566 6.93002 12.499" fill="#A26038"/>
<path d="M6.92983 12.499L6.93169 12.4928C4.6485 13.0727 2.95504 16.0244 5.09636 18.6285L5.0874 18.6581" fill="#8C5430"/>
<path d="M2.85609 12.8618C2.84682 12.8593 2.83785 12.8562 2.82858 12.8538C2.82425 12.8584 2.82055 12.8634 2.81622 12.8683L2.81035 12.8485C1.40248 12.4441 0.339545 11.3131 0.0765159 9.92805C-0.258838 8.16242 0.871786 6.85991 1.01396 6.70234L1.01211 6.69617" fill="#A46139"/>
<path d="M1.01172 6.69617C3.29491 7.27606 4.98837 10.2277 2.84705 12.8318L2.85601 12.8615" fill="#B68259"/>
<path d="M3.56233 14.5152C2.58841 13.5229 2.28459 12.2095 2.78685 11.1298C3.42695 9.75312 5.05921 9.4386 5.26104 9.40308" fill="#8C5430"/>
<path d="M5.26092 9.40344L5.26277 9.39819C6.88175 10.9559 6.76522 13.8331 3.60177 14.523L3.59373 14.548C3.58724 14.5415 3.58106 14.535 3.57457 14.5286C3.5687 14.5298 3.56251 14.531 3.55664 14.532L3.56221 14.5156" fill="#C18E68"/>
<path d="M2.82386 16.5846L2.83159 16.5704C2.27586 15.5669 2.31388 14.3522 2.93544 13.4395C3.72793 12.276 5.07583 12.1806 5.24181 12.1719L5.24429 12.1676" fill="#C18E68"/>
<path d="M5.24366 12.1676C6.18698 13.7528 5.48938 16.3251 2.86033 16.5818L2.8489 16.6031C2.84519 16.5967 2.84179 16.5899 2.83808 16.5834C2.83313 16.5837 2.82819 16.5843 2.82324 16.5846" fill="#B68259"/>
<path d="M2.84144 16.6173C2.83217 16.6148 2.82321 16.6117 2.81393 16.6093C2.80961 16.6139 2.8059 16.6188 2.80157 16.6238L2.7957 16.604C1.38783 16.1996 0.324896 15.0686 0.0618677 13.6835C-0.273486 11.9179 0.857134 10.6154 0.999312 10.4578L0.997459 10.4517" fill="#CCA479"/>
<path d="M0.99707 10.4517C3.28026 11.0316 4.97372 13.9832 2.8324 16.5873L2.84136 16.617" fill="#8C5430"/>
<path d="M5.10596 18.6261L5.09824 18.6119C5.65397 17.6084 5.61595 16.3937 4.99439 15.481C4.2019 14.3175 2.854 14.2221 2.68802 14.2134L2.68555 14.2091" fill="#BA6E41"/>
<path d="M2.68522 14.2087C1.74191 15.7939 2.4395 18.3662 5.06855 18.623L5.07999 18.6443C5.0837 18.6378 5.0871 18.631 5.09081 18.6245C5.09575 18.6248 5.1007 18.6254 5.10565 18.6257" fill="#C18E68"/>
<path d="M19.025 18.6937L19.0328 18.6795C18.477 17.676 18.5151 16.4612 19.1366 15.5486C19.9291 14.3851 21.277 14.2897 21.443 14.281" fill="#BA6E41"/>
<path d="M21.4433 14.2811L21.4458 14.2767C22.3891 15.8619 21.6915 18.4342 19.0625 18.691L19.051 18.7123C19.0473 18.7058 19.0439 18.699 19.0402 18.6925C19.0353 18.6928 19.0303 18.6934 19.0254 18.6937" fill="#C18E68"/>
<path d="M17.5938 20.4596C19.0016 20.0552 20.0645 18.9241 20.3276 17.5391C20.6629 15.7735 19.5323 14.471 19.3901 14.3134L19.392 14.3073" fill="#BA6E41"/>
<path d="M19.3926 14.3073C17.1094 14.8871 15.416 17.8388 17.5573 20.4429L17.5483 20.4726C17.5576 20.4701 17.5666 20.467 17.5758 20.4646C17.5802 20.4692 17.5839 20.4741 17.5882 20.4791L17.5941 20.4593" fill="#C18E68"/>
<path d="M5.98208 20.1471C5.98796 20.1458 5.99414 20.1446 6.00001 20.1431L5.98857 20.1301C6.49021 18.8337 6.24944 17.5071 5.36083 16.7144C4.22804 15.7035 2.60443 16.06 2.40508 16.1073L2.40137 16.1033" fill="#A26038"/>
<path d="M2.40092 16.1031C1.53055 18.174 2.77676 20.7704 5.95474 20.1528L5.97205 20.1726C5.97545 20.1642 5.97854 20.1556 5.98163 20.1469" fill="#BA6E41"/>
<path d="M6.23633 19.8841L6.2388 19.8684C7.2937 19.4173 8.00984 18.4348 8.07938 17.3328C8.16809 15.9281 7.16264 15.0256 7.03716 14.9169" fill="#C18E68"/>
<path d="M7.03781 14.9168L7.03873 14.9119C5.32055 15.5844 4.29162 18.043 6.20947 19.859L6.20545 19.8831C6.21256 19.8803 6.21905 19.8769 6.22616 19.8742C6.22987 19.8776 6.23358 19.881 6.23729 19.884" fill="#B68259"/>
<path d="M19.6714 20.8887C21.1769 19.9069 21.333 18.1895 21.3482 17.9778L21.3537 17.9748C19.353 16.7312 16.0508 17.5564 15.6564 20.9045L15.6289 20.9187C15.6373 20.9236 15.6456 20.9283 15.6539 20.9329C15.6533 20.9391 15.6527 20.9456 15.6521 20.9518L15.6703 20.9422C16.9376 21.6769 18.4901 21.6593 19.6714 20.8887Z" fill="#CCA479"/>
<path d="M7.18642 18.9217C7.9789 17.7582 9.32681 17.6628 9.49279 17.6541L9.49526 17.6498C10.4386 19.235 9.74098 21.8073 7.11193 22.064L7.10049 22.0853C7.09678 22.0788 7.09339 22.072 7.08968 22.0655C7.08473 22.0659 7.07979 22.0665 7.07484 22.0668L7.08257 22.0526C6.52684 21.0494 6.56486 19.8343 7.18642 18.9217Z" fill="#698B73"/>
<path d="M8.83085 22.1119C8.82189 22.1156 8.81292 22.1187 8.80396 22.1221C8.80365 22.1283 8.80334 22.1348 8.80272 22.141L8.78603 22.1289C7.42144 22.6609 5.88994 22.406 4.84029 21.4644C3.50259 20.2638 3.61108 18.543 3.62838 18.3313L3.62313 18.3276" fill="#CCA479"/>
<path d="M3.62305 18.3276C5.79033 17.4045 8.92751 18.7246 8.80511 22.0937L8.83015 22.1119" fill="#8C5430"/>
<path d="M21.3452 17.9457L21.3508 17.9427C19.3501 16.6991 16.0479 17.5243 15.6535 20.8724L15.626 20.8866" fill="#A26038"/>
<path d="M12.0367 24.3122C14.7083 24.3122 16.8741 22.1474 16.8741 19.4769C16.8741 16.8064 14.7083 14.6416 12.0367 14.6416C9.36501 14.6416 7.19922 16.8064 7.19922 19.4769C7.19922 22.1474 9.36501 24.3122 12.0367 24.3122Z" fill="#7A4929"/>
<path d="M12.067 22.8617C13.9539 22.8617 15.4836 21.3327 15.4836 19.4466C15.4836 17.5605 13.9539 16.0315 12.067 16.0315C10.1801 16.0315 8.65039 17.5605 8.65039 19.4466C8.65039 21.3327 10.1801 22.8617 12.067 22.8617Z" fill="#B68259"/>
<path d="M13.1673 21.5855L12.2027 21.089C12.0945 21.0334 11.9669 21.0343 11.8615 21.0915L10.9216 21.6015C10.656 21.7455 10.3361 21.5184 10.38 21.2169L10.5358 20.1498C10.5531 20.0302 10.5108 19.9085 10.4224 19.8245L9.6333 19.0753C9.41045 18.8637 9.52141 18.4914 9.82091 18.4453L10.882 18.2822C11.001 18.264 11.1024 18.1877 11.1531 18.0786L11.6055 17.1054C11.7332 16.8308 12.1217 16.8277 12.263 17.1008L12.7631 18.0672C12.819 18.1756 12.9241 18.2501 13.044 18.2668L14.1128 18.4148C14.4145 18.4565 14.5437 18.8269 14.3313 19.0416L13.5793 19.8019C13.495 19.8872 13.4585 20.0095 13.482 20.1288L13.69 21.1934C13.7484 21.4937 13.4396 21.7257 13.1673 21.5855Z" fill="#7A4929"/>
<path opacity="0.29" d="M8.41211 16.2593C10.1865 14.2629 13.2443 14.0824 15.2416 15.8564C17.2389 17.6301 17.4194 20.6865 15.6446 22.6829" fill="white"/>
</svg>
