<svg width="24" height="25" viewBox="0 0 24 25" fill="none" xmlns="http://www.w3.org/2000/svg">
<path d="M22.6346 11.8168C21.2981 12.4161 19.7557 12.2375 18.6606 11.3493C17.2648 10.2167 17.2874 8.49277 17.2942 8.28052" fill="#E0E0E0"/>
<path d="M17.2943 8.28054L17.2891 8.27714C19.4078 7.2474 22.6069 8.40967 22.6523 11.7806L22.6783 11.7976C22.6696 11.8016 22.6607 11.8054 22.652 11.8094C22.652 11.8159 22.652 11.822 22.6517 11.8282L22.6347 11.8168" fill="#B7B6B6"/>
<path d="M20.8698 1.89547C19.9861 0.330638 18.2815 0.0649389 18.071 0.0358975L18.0685 0.0300293C16.6987 1.94583 17.3107 5.293 20.6281 5.90101L20.6404 5.92943C20.646 5.9214 20.6509 5.91337 20.6562 5.90533C20.6624 5.90626 20.6686 5.9075 20.6751 5.90843L20.6667 5.88958C21.4812 4.67293 21.5631 3.12293 20.8698 1.89547Z" fill="#B7B6B6"/>
<path d="M21.1652 7.69354C21.1659 7.68458 21.1665 7.67531 21.1671 7.66635C21.1724 7.66326 21.1779 7.66048 21.1832 7.65739L21.1683 7.64843C21.2716 6.26217 20.6559 5.06283 19.575 4.56202C18.1971 3.92342 16.7472 4.73596 16.5701 4.83915L16.5654 4.83637" fill="#EFEEEE"/>
<path d="M16.5655 4.8363C16.3343 7.07032 18.2812 9.19342 21.143 7.67988L21.1653 7.69378" fill="#E5E5E5"/>
<path d="M18.1105 0.00556276L18.1074 0C20.4302 0.0395456 22.7245 2.48921 21.2595 5.47367L21.2746 5.50025" fill="#E0E0E0"/>
<path d="M23.0609 8.78341C23.0597 8.77599 23.0578 8.76858 23.0563 8.76147C23.0603 8.75838 23.0643 8.7556 23.0683 8.75282L23.0532 8.74695C22.83 7.62207 22.0165 6.71839 20.9523 6.42241C19.5957 6.04487 18.5044 6.84135 18.3721 6.94176" fill="#C2C2C2"/>
<path d="M18.3728 6.94155L18.3682 6.9397C18.6711 8.75911 20.8647 10.2742 23.0388 8.77456L23.0613 8.78351" fill="#E0E0E0"/>
<path d="M23.3053 4.75509C22.4216 3.19026 20.717 2.92456 20.5065 2.89552L20.5041 2.88965C19.1342 4.80545 19.7462 8.15261 23.0636 8.76063L23.076 8.78906C23.0815 8.78102 23.0865 8.77299 23.0917 8.76496C23.0979 8.76588 23.1041 8.76712 23.1106 8.76804L23.1022 8.7492C23.9167 7.53255 23.9986 5.98255 23.3053 4.75509Z" fill="#A8A8A8"/>
<path d="M20.4966 2.87757L20.4941 2.8717C22.8917 3.13647 24.9546 5.84782 23.0614 8.74021L23.0738 8.76863" fill="#C2C2C2"/>
<path d="M18.9128 18.6429C18.9035 18.6405 18.8945 18.6374 18.8853 18.6349C18.8809 18.6395 18.8772 18.6445 18.8729 18.6494L18.867 18.6297C17.4591 18.2252 16.3962 17.0942 16.1332 15.7092C15.7978 13.9435 16.9284 12.641 17.0706 12.4834" fill="#E5E5E5"/>
<path d="M17.0702 12.4835L17.0684 12.4773C19.3516 13.0572 21.0451 16.0089 18.9037 18.613L18.9127 18.6427" fill="#B7B6B6"/>
<path d="M21.1436 12.8459C21.1528 12.8434 21.1618 12.8403 21.1711 12.8379C21.1754 12.8425 21.1791 12.8474 21.1834 12.8524L21.1893 12.8326C22.5972 12.4282 23.6601 11.2971 23.9232 9.9121C24.2585 8.14645 23.1279 6.84392 22.9857 6.68635L22.9876 6.68018" fill="#E0E0E0"/>
<path d="M22.9884 6.68018C20.7051 7.26008 19.0117 10.2118 21.153 12.8159L21.1441 12.8456" fill="#B7B6B6"/>
<path d="M20.438 14.4997C21.4119 13.5073 21.7158 12.194 21.2135 11.1142C20.5734 9.73781 18.9411 9.42298 18.7393 9.38745" fill="#F2F2F2"/>
<path d="M18.7387 9.38745L18.7369 9.3822C17.1179 10.9399 17.2344 13.8172 20.3979 14.5071L20.406 14.5321C20.4124 14.5256 20.4186 14.5191 20.4251 14.5126C20.431 14.5139 20.4372 14.5151 20.443 14.516L20.4375 14.4997" fill="#E0E0E0"/>
<path d="M21.1763 16.569L21.1686 16.5548C21.7243 15.5514 21.6863 14.3366 21.0647 13.4239C20.2722 12.2604 18.9243 12.165 18.7583 12.1563L18.7559 12.152" fill="#E0E0E0"/>
<path d="M18.7565 12.152C17.8132 13.7372 18.5108 16.3095 21.1399 16.5663L21.1513 16.5876C21.155 16.5811 21.1584 16.5743 21.1621 16.5678C21.1671 16.5681 21.172 16.5687 21.177 16.569" fill="#BDBBBB"/>
<path d="M21.1582 16.6018C21.1675 16.5993 21.1764 16.5962 21.1857 16.5937C21.19 16.5984 21.1937 16.6033 21.1981 16.6082L21.2039 16.5885C22.6118 16.1841 23.6748 15.053 23.9378 13.668C24.2732 11.9023 23.1425 10.5998 23.0004 10.4422L23.0022 10.436" fill="#EFEEEE"/>
<path d="M23.003 10.436C20.7198 11.0159 19.0263 13.9676 21.1677 16.5718L21.1587 16.6014" fill="#BDBBBB"/>
<path d="M8.88052 22.0263L8.88578 22.03C9.06783 19.6823 6.81336 17.1329 3.65914 18.326L3.63379 18.3081" fill="#79AC86"/>
<path d="M10.6603 18.0792C11.8831 16.7615 13.6028 16.898 13.8139 16.9187L13.818 16.9135C14.7063 19.0947 13.3346 22.2086 9.96676 22.0316L9.9479 22.0563C9.9445 22.0473 9.94142 22.0384 9.93802 22.0294C9.93184 22.0288 9.92534 22.0285 9.91916 22.0278L9.93152 22.0115C9.42153 20.6391 9.70125 19.1126 10.6603 18.0792Z" fill="#8BC79A"/>
<path d="M17.3764 19.4391C18.1046 18.1069 17.3893 16.6073 17.2982 16.4238L17.3012 16.4195C15.0863 16.0416 12.8387 17.8431 14.1606 20.7973L14.1455 20.8186C14.1544 20.8198 14.1634 20.8211 14.1727 20.8223C14.1755 20.8279 14.1779 20.8334 14.1804 20.839L14.1903 20.8248C15.5673 21.0191 16.8049 20.484 17.3764 19.4391Z" fill="#C2C2C2"/>
<path d="M15.4283 20.6907C15.8948 19.3626 15.1715 18.2216 15.08 18.0829L15.0822 18.0782C13.2459 18.2602 11.5889 20.3481 12.9424 22.6155L12.9319 22.6374C12.9393 22.6365 12.9467 22.6353 12.9541 22.6343C12.9569 22.6387 12.9594 22.6427 12.9621 22.647L12.9689 22.6325C14.1067 22.4842 15.0627 21.7325 15.4283 20.6907Z" fill="#79A084"/>
<path d="M12.9248 22.6519C12.9322 22.6577 12.9403 22.6633 12.9477 22.6692C12.9464 22.6754 12.9449 22.6815 12.9433 22.6877L12.9625 22.6806C14.1237 23.5732 15.6655 23.757 16.9364 23.1465C18.557 22.3683 18.9347 20.6857 18.9773 20.4778" fill="#C2C2C2"/>
<path d="M18.9779 20.4782L18.9838 20.476C17.1617 18.9835 13.7801 19.3731 12.9542 22.6415L12.9248 22.652" fill="#79AC86"/>
<path d="M11.1695 17.549C10.0425 16.5313 8.41706 16.8785 8.21708 16.9246L8.21338 16.9206C7.33093 18.9862 8.56202 21.59 11.7437 20.9907L11.7611 21.0104C11.7645 21.0021 11.7676 20.9935 11.771 20.9851C11.7768 20.9839 11.783 20.9826 11.7889 20.9814L11.7774 20.9684C12.2865 19.6749 12.0535 18.3473 11.1695 17.549Z" fill="#8EB693"/>
<path d="M10.2367 23.3023C11.9772 23.7531 13.352 22.7116 13.5186 22.5803L13.5244 22.5825C13.096 20.2669 10.2614 18.3832 7.52045 20.3472L7.49139 20.3364C7.49324 20.3457 7.49571 20.3549 7.49757 20.3645C7.49262 20.3685 7.48737 20.3719 7.48242 20.3759L7.50159 20.383C7.81253 21.8138 8.87177 22.9486 10.2367 23.3023Z" fill="#79A084"/>
<path d="M1.36523 11.8328C2.70172 12.4321 4.24406 12.2535 5.33915 11.3653C6.73499 10.2327 6.71242 8.50876 6.70562 8.29651" fill="#E0E0E0"/>
<path d="M6.70623 8.29653L6.71148 8.29313C4.5927 7.2634 1.39366 8.42566 1.34822 11.7966L1.32227 11.8136C1.33092 11.8176 1.33988 11.8213 1.34853 11.8254C1.34853 11.8318 1.34853 11.838 1.34884 11.8442L1.36584 11.8328" fill="#F2F2F2"/>
<path d="M3.13015 1.91121C4.01382 0.346381 5.71842 0.0806859 5.92891 0.0516446L5.93139 0.0457764C7.30126 1.96158 6.68926 5.30875 3.37184 5.91676L3.35948 5.94518C3.35392 5.93715 3.34898 5.92911 3.34372 5.92108C3.33754 5.92201 3.33135 5.92325 3.32486 5.92417L3.33321 5.90532C2.51846 4.68868 2.43687 3.13898 3.13015 1.91121Z" fill="#BDBBBB"/>
<path d="M2.83434 7.70954C2.83341 7.70058 2.8331 7.6913 2.83248 7.68234C2.82722 7.67925 2.82166 7.67647 2.81641 7.67338L2.83124 7.66442C2.72801 6.27816 3.34371 5.07882 4.42458 4.57801C5.80249 3.93941 7.25241 4.75195 7.42951 4.85514L7.43415 4.85236" fill="#EFEEEE"/>
<path d="M7.4338 4.85242C7.665 7.08644 5.71806 9.20954 2.85624 7.696L2.83398 7.7099" fill="#E5E5E5"/>
<path d="M5.88909 0.0213098L5.89218 0.0157471C3.5694 0.0552927 1.27505 2.50496 2.74012 5.48942L2.72498 5.51599" fill="#E0E0E0"/>
<path d="M0.939058 8.79928C0.940295 8.79186 0.942154 8.78445 0.943699 8.77734C0.939681 8.77425 0.935659 8.77147 0.931641 8.76869L0.946786 8.76282C1.16995 7.63793 1.98346 6.73426 3.04764 6.43828C4.40422 6.06074 5.4956 6.85722 5.62789 6.95763" fill="#C2C2C2"/>
<path d="M5.627 6.95754L5.63164 6.95569C5.32874 8.7751 3.13515 10.2902 0.961039 8.79024L0.938477 8.79919" fill="#E0E0E0"/>
<path d="M0.694595 4.77084C1.57827 3.206 3.28288 2.94031 3.49337 2.91127L3.49584 2.9054C4.86571 4.8212 4.25372 8.16836 0.936302 8.77637L0.923934 8.8048C0.918371 8.79677 0.913425 8.78874 0.908171 8.7807C0.901989 8.78163 0.895811 8.78286 0.889321 8.78379L0.897667 8.76495C0.0829161 7.5483 0.00131533 5.99861 0.694595 4.77084Z" fill="#A8A8A8"/>
<path d="M3.50368 2.89332L3.50615 2.88745C1.10857 3.15222 -0.954268 5.86357 0.938883 8.75565L0.926523 8.78407" fill="#C2C2C2"/>
<path d="M5.08789 18.6587C5.09716 18.6562 5.10613 18.6531 5.1154 18.6507C5.11973 18.6553 5.12344 18.6602 5.12776 18.6652L5.13363 18.6454C6.54152 18.241 7.60447 17.1099 7.86751 15.7249C8.20286 13.9592 7.07222 12.6567 6.93005 12.4991" fill="#E5E5E5"/>
<path d="M6.92987 12.4992L6.93173 12.493C4.64851 13.0729 2.95503 16.0247 5.09637 18.6288L5.08741 18.6585" fill="#B7B6B6"/>
<path d="M2.85612 12.8619C2.84685 12.8594 2.83789 12.8563 2.82862 12.8538C2.82429 12.8585 2.82058 12.8634 2.81625 12.8684L2.81038 12.8486C1.40249 12.4442 0.339549 11.3131 0.0765167 9.92809C-0.258841 8.16244 0.871797 6.85991 1.01398 6.70234L1.01212 6.69617" fill="#E0E0E0"/>
<path d="M1.01172 6.69617C3.29494 7.27607 4.98841 10.2278 2.84707 12.8319L2.85603 12.8616" fill="#EFEEEE"/>
<path d="M3.56235 14.5154C2.58842 13.523 2.28458 12.2097 2.78685 11.1299C3.42697 9.75324 5.05925 9.43873 5.26108 9.4032" fill="#B7B6B6"/>
<path d="M5.26094 9.40357L5.2628 9.39832C6.88179 10.956 6.76527 13.8333 3.60177 14.5232L3.59374 14.5482C3.58725 14.5417 3.58106 14.5352 3.57457 14.5287C3.5687 14.53 3.56251 14.5312 3.55664 14.5321L3.56221 14.5158" fill="#E0E0E0"/>
<path d="M2.82289 16.5848L2.83062 16.5706C2.27488 15.5671 2.3129 14.3523 2.93447 13.4397C3.72697 12.2762 5.07489 12.1807 5.24087 12.1721L5.24334 12.1677" fill="#E0E0E0"/>
<path d="M5.2437 12.1677C6.18703 13.7529 5.48942 16.3253 2.86034 16.582L2.8489 16.6033C2.84519 16.5968 2.84179 16.59 2.83808 16.5836C2.83313 16.5839 2.82819 16.5845 2.82324 16.5848" fill="#BDBBBB"/>
<path d="M2.84148 16.6175C2.8322 16.615 2.82324 16.6119 2.81397 16.6095C2.80964 16.6141 2.80593 16.619 2.8016 16.624L2.79573 16.6042C1.38785 16.1998 0.324901 15.0687 0.0618686 13.6837C-0.27349 11.9181 0.857141 10.6155 0.999321 10.458L0.997472 10.4518" fill="#EFEEEE"/>
<path d="M0.99707 10.4518C3.28029 11.0317 4.97377 13.9834 2.83242 16.5875L2.84138 16.6172" fill="#B7B6B6"/>
<path d="M5.106 18.6263L5.09827 18.6121C5.65401 17.6086 5.61599 16.3938 4.99442 15.4812C4.20192 14.3177 2.854 14.2222 2.68802 14.2136L2.68555 14.2092" fill="#F2F2F2"/>
<path d="M2.68523 14.209C1.7419 15.7942 2.43951 18.3665 5.06859 18.6233L5.08002 18.6446C5.08373 18.6381 5.08714 18.6313 5.09085 18.6248C5.09579 18.6251 5.10074 18.6257 5.10568 18.626" fill="#E0E0E0"/>
<path d="M19.025 18.694L19.0328 18.6798C18.477 17.6763 18.5151 16.4615 19.1366 15.5489C19.9291 14.3854 21.277 14.2899 21.443 14.2812" fill="#C2C2C2"/>
<path d="M21.4434 14.2812L21.4458 14.2769C22.3892 15.8621 21.6916 18.4344 19.0625 18.6911L19.051 18.7125C19.0473 18.706 19.0439 18.6992 19.0402 18.6927C19.0353 18.693 19.0303 18.6936 19.0254 18.6939" fill="#E0E0E0"/>
<path d="M17.5938 20.4599C19.0016 20.0555 20.0646 18.9245 20.3276 17.5394C20.663 15.7738 19.5323 14.4712 19.3902 14.3137L19.392 14.3075" fill="#F2F2F2"/>
<path d="M19.3927 14.3075C17.1095 14.8874 15.416 17.8391 17.5573 20.4433L17.5483 20.4729C17.5576 20.4704 17.5666 20.4673 17.5759 20.4649C17.5802 20.4695 17.5839 20.4745 17.5882 20.4794L17.5941 20.4596" fill="#E0E0E0"/>
<path d="M5.98213 20.1472C5.988 20.146 5.99418 20.1448 6.00005 20.1432L5.98862 20.1303C6.49027 18.8339 6.24949 17.5073 5.36086 16.7145C4.22806 15.7036 2.60443 16.0601 2.40507 16.1074L2.40137 16.1034" fill="#E0E0E0"/>
<path d="M2.40092 16.1034C1.53054 18.1743 2.77677 20.7707 5.95479 20.1531L5.9721 20.1729C5.9755 20.1645 5.9786 20.1559 5.98169 20.1472" fill="#C2C2C2"/>
<path d="M6.23633 19.8843L6.2388 19.8685C7.29371 19.4175 8.00986 18.435 8.0794 17.333C8.16811 15.9282 7.16266 15.0257 7.03717 14.917" fill="#E0E0E0"/>
<path d="M7.03783 14.917L7.03876 14.9121C5.32055 15.5847 4.2916 18.0433 6.20948 19.8593L6.20547 19.8834C6.21257 19.8806 6.21906 19.8773 6.22617 19.8745C6.22988 19.8779 6.23359 19.8813 6.2373 19.8844" fill="#B7B6B6"/>
<path d="M19.6705 20.889C21.176 19.9072 21.3321 18.1897 21.3473 17.9781L21.3528 17.975C19.3521 16.7315 16.0498 17.5567 15.6554 20.9048L15.6279 20.919C15.6363 20.9239 15.6446 20.9286 15.653 20.9332C15.6523 20.9394 15.6517 20.9459 15.6511 20.9521L15.6693 20.9425C16.9369 21.6772 18.4894 21.6595 19.6705 20.889Z" fill="#EFEEEE"/>
<path d="M7.18666 18.922C7.97915 17.7585 9.32707 17.663 9.49305 17.6543L9.49553 17.65C10.4389 19.2352 9.74125 21.8076 7.11216 22.0643L7.10073 22.0856C7.09702 22.0791 7.09362 22.0723 7.08991 22.0658C7.08497 22.0662 7.08002 22.0668 7.07508 22.0671L7.0828 22.0529C6.52676 21.0497 6.56478 19.8346 7.18666 18.922Z" fill="#698B73"/>
<path d="M8.83092 22.1122C8.82196 22.1159 8.81299 22.119 8.80403 22.1224C8.80372 22.1286 8.80341 22.1351 8.8028 22.1413L8.7861 22.1292C7.42149 22.6612 5.88996 22.4063 4.84031 21.4647C3.50259 20.2641 3.61108 18.5432 3.62838 18.3316L3.62313 18.3279" fill="#EFEEEE"/>
<path d="M3.62305 18.3279C5.79036 17.4047 8.92758 18.7249 8.80518 22.094L8.83022 22.1122" fill="#B7B6B6"/>
<path d="M21.3453 17.946L21.3509 17.9429C19.3501 16.6994 16.0479 17.5246 15.6535 20.8727L15.626 20.8869" fill="#E0E0E0"/>
<path d="M12.0367 24.3125C14.7084 24.3125 16.8742 22.1476 16.8742 19.4771C16.8742 16.8066 14.7084 14.6417 12.0367 14.6417C9.36504 14.6417 7.19922 16.8066 7.19922 19.4771C7.19922 22.1476 9.36504 24.3125 12.0367 24.3125Z" fill="#BFBEBE"/>
<path d="M12.067 22.862C13.954 22.862 15.4837 21.333 15.4837 19.4469C15.4837 17.5607 13.954 16.0317 12.067 16.0317C10.1801 16.0317 8.65039 17.5607 8.65039 19.4469C8.65039 21.333 10.1801 22.862 12.067 22.862Z" fill="#EFEEEE"/>
<path d="M13.1677 21.5858L12.203 21.0893C12.0949 21.0337 11.9672 21.0346 11.8618 21.0918L10.9216 21.6018C10.6561 21.7458 10.3362 21.5187 10.3801 21.2172L10.5358 20.1501C10.5531 20.0305 10.5108 19.9088 10.4224 19.8248L9.6333 19.0756C9.41045 18.8639 9.52141 18.4916 9.82092 18.4456L10.882 18.2825C11.001 18.2643 11.1024 18.1879 11.1531 18.0789L11.6056 17.1057C11.7332 16.831 12.1218 16.8279 12.263 17.1011L12.7631 18.0674C12.8191 18.1759 12.9241 18.2504 13.0441 18.267L14.1129 18.415C14.4146 18.4567 14.5437 18.8272 14.3314 19.0419L13.5794 19.8022C13.495 19.8875 13.4585 20.0098 13.482 20.1291L13.6901 21.1937C13.7491 21.494 13.4403 21.726 13.1677 21.5858Z" fill="#A8A8A8"/>
<path opacity="0.29" d="M8.41113 16.2594C10.1856 14.263 13.2434 14.0826 15.2407 15.8565C17.238 17.6302 17.4185 20.6867 15.6437 22.6831" fill="white"/>
<path d="M9.67946 14.9198L9.36512 11.6651C9.34874 11.4951 9.56819 11.3916 9.71347 11.501L11.0796 12.5273C11.1897 12.6101 11.3575 12.5731 11.4125 12.4538L11.8233 11.565C11.8959 11.4074 12.1435 11.4074 12.2164 11.565L12.6251 12.4495C12.6801 12.5687 12.8479 12.6058 12.9579 12.523L14.3192 11.5004C14.4644 11.391 14.6839 11.4945 14.6675 11.6644L14.3532 14.9189C14.3399 15.0555 14.177 15.1358 14.0425 15.0725L13.6089 14.8683C13.5786 14.854 13.5446 14.8463 13.5103 14.8463H10.5236C10.4893 14.8463 10.4553 14.8537 10.425 14.8683L9.98979 15.0731C9.85533 15.1367 9.69244 15.0564 9.67946 14.9198Z" fill="#E0E0E0"/>
<path d="M9.41036 15.5152H14.6868C14.7118 15.5152 14.7319 15.4951 14.7319 15.4701V14.551C14.7319 14.5259 14.7118 14.5059 14.6868 14.5059H9.41036C9.38532 14.5059 9.36523 14.5259 9.36523 14.551V15.4701C9.36523 15.4948 9.38532 15.5152 9.41036 15.5152Z" fill="#BFBEBE"/>
<path d="M12.0098 11.5909C12.2563 11.5909 12.4561 11.4107 12.4561 11.1883C12.4561 10.966 12.2563 10.7858 12.0098 10.7858C11.7633 10.7858 11.5635 10.966 11.5635 11.1883C11.5635 11.4107 11.7633 11.5909 12.0098 11.5909Z" fill="#90CDC1"/>
<path d="M9.35844 11.7269C9.60493 11.7269 9.80475 11.5466 9.80475 11.3243C9.80475 11.102 9.60493 10.9218 9.35844 10.9218C9.11194 10.9218 8.91211 11.102 8.91211 11.3243C8.91211 11.5466 9.11194 11.7269 9.35844 11.7269Z" fill="#90CDC1"/>
<path d="M14.6748 11.7269C14.9213 11.7269 15.1212 11.5466 15.1212 11.3243C15.1212 11.102 14.9213 10.9218 14.6748 10.9218C14.4283 10.9218 14.2285 11.102 14.2285 11.3243C14.2285 11.5466 14.4283 11.7269 14.6748 11.7269Z" fill="#90CDC1"/>
<path opacity="0.29" d="M9.58499 14.517H9.64032L9.44034 12.4464L12.8533 15.5263H9.58499C9.46352 15.5263 9.36523 15.4377 9.36523 15.328V14.7153C9.36523 14.606 9.46352 14.517 9.58499 14.517Z" fill="white"/>
</svg>
