<svg width="24" height="25" viewBox="0 0 24 25" fill="none" xmlns="http://www.w3.org/2000/svg">
<path d="M22.6346 11.8168C21.2981 12.4161 19.7557 12.2376 18.6606 11.3493C17.2648 10.2167 17.2874 8.49277 17.2942 8.28052" fill="#84BC92"/>
<path d="M17.2933 8.28077L17.2881 8.27738C19.4069 7.24765 22.6059 8.40992 22.6513 11.7809L22.6773 11.7979C22.6687 11.8019 22.6597 11.8056 22.651 11.8096C22.651 11.8161 22.651 11.8223 22.6507 11.8285L22.6337 11.817" fill="#8BC79A"/>
<path d="M20.8688 1.89535C19.9851 0.33052 18.2805 0.0648243 18.07 0.035783L18.0676 0.0299072C16.6977 1.94571 17.3097 5.29287 20.6271 5.90089L20.6395 5.92932C20.645 5.92128 20.65 5.91325 20.6552 5.90522C20.6614 5.90615 20.6676 5.90738 20.6741 5.9083L20.6657 5.88946C21.4802 4.67282 21.5621 3.12281 20.8688 1.89535Z" fill="#DED177"/>
<path d="M21.1652 7.69354C21.1662 7.68458 21.1665 7.67531 21.1671 7.66635C21.1724 7.66326 21.1779 7.66048 21.1832 7.65739L21.1683 7.64843C21.2716 6.26217 20.6559 5.06283 19.575 4.56202C18.1971 3.92342 16.7472 4.73596 16.5701 4.83915L16.5654 4.83636" fill="#698B73"/>
<path d="M16.5655 4.8363C16.3343 7.07032 18.2812 9.19343 21.143 7.67988L21.1653 7.69378" fill="#DFCF55"/>
<path d="M18.1105 0.00556653L18.1074 0C20.4302 0.0395456 22.7245 2.48922 21.2595 5.47368L21.2746 5.50024" fill="#FFF8BB"/>
<path d="M23.0609 8.78341C23.0597 8.77599 23.0578 8.76858 23.0563 8.76147C23.0603 8.75838 23.0643 8.7556 23.0683 8.75282L23.0532 8.74695C22.83 7.62207 22.0165 6.71839 20.9523 6.42241C19.5957 6.04487 18.5044 6.84135 18.3721 6.94176" fill="#79A084"/>
<path d="M18.3728 6.9418L18.3682 6.93994C18.6711 8.75935 20.8647 10.2744 23.0388 8.77448L23.0613 8.78344" fill="#698B73"/>
<path d="M23.3053 4.75509C22.4216 3.19026 20.717 2.92456 20.5066 2.89552L20.5041 2.88965C19.1342 4.80545 19.7462 8.15262 23.0636 8.76063L23.076 8.78905C23.0815 8.78102 23.0865 8.77299 23.0917 8.76496C23.0979 8.76589 23.1041 8.76712 23.1106 8.76804L23.1023 8.7492C23.9167 7.53256 23.9986 5.98286 23.3053 4.75509Z" fill="#8BC79A"/>
<path d="M20.4966 2.87757L20.4941 2.8717C22.8917 3.13647 24.9546 5.84782 23.0614 8.7399L23.0738 8.76832" fill="#DFCF55"/>
<path d="M18.9118 18.6429C18.9025 18.6405 18.8936 18.6374 18.8843 18.6349C18.88 18.6395 18.8762 18.6445 18.8719 18.6494L18.866 18.6297C17.4582 18.2252 16.3952 17.0942 16.1322 15.7091C15.7968 13.9435 16.9275 12.641 17.0696 12.4834" fill="#DFCF55"/>
<path d="M17.0702 12.4835L17.0684 12.4773C19.3516 13.0572 21.0451 16.0089 18.9037 18.613L18.9127 18.6427" fill="#8BC79A"/>
<path d="M21.1436 12.8459C21.1528 12.8434 21.1618 12.8403 21.1711 12.8379C21.1754 12.8425 21.1791 12.8474 21.1834 12.8524L21.1893 12.8326C22.5972 12.4282 23.6601 11.2971 23.9232 9.91211C24.2585 8.14646 23.1279 6.84393 22.9857 6.68636L22.9876 6.68018" fill="#FFF8BB"/>
<path d="M22.9874 6.68018C20.7042 7.26008 19.0107 10.2118 21.152 12.8159L21.1431 12.8456" fill="#DFCF55"/>
<path d="M20.438 14.4996C21.4119 13.5073 21.7158 12.194 21.2135 11.1142C20.5734 9.73749 18.9411 9.42298 18.7393 9.38745" fill="#8EB693"/>
<path d="M18.7387 9.38782L18.7369 9.38257C17.1179 10.9403 17.2344 13.8175 20.3979 14.5074L20.406 14.5325C20.4124 14.526 20.4186 14.5195 20.4251 14.513C20.431 14.5142 20.4372 14.5155 20.443 14.5164L20.4375 14.5" fill="#698B73"/>
<path d="M21.1763 16.569L21.1686 16.5548C21.7243 15.5514 21.6863 14.3366 21.0647 13.4239C20.2722 12.2604 18.9243 12.165 18.7583 12.1563L18.7559 12.152" fill="#698B73"/>
<path d="M18.7555 12.152C17.8122 13.7372 18.5098 16.3095 21.1389 16.5663L21.1503 16.5876C21.154 16.5811 21.1574 16.5743 21.1612 16.5678C21.1661 16.5681 21.171 16.5687 21.176 16.569" fill="#DED177"/>
<path d="M21.1582 16.6018C21.1675 16.5993 21.1764 16.5962 21.1857 16.5937C21.19 16.5984 21.1937 16.6033 21.1981 16.6082L21.2039 16.5885C22.6118 16.1841 23.6748 15.053 23.9378 13.668C24.2732 11.9023 23.1425 10.5998 23.0004 10.4422L23.0022 10.436" fill="#84BC92"/>
<path d="M23.003 10.436C20.7198 11.0159 19.0263 13.9676 21.1677 16.5718L21.1587 16.6014" fill="#8BC79A"/>
<path d="M8.88052 22.0265L8.88577 22.0302C9.06782 19.6825 6.81335 17.133 3.65913 18.3262L3.63379 18.3082" fill="#79AC86"/>
<path d="M10.6603 18.0793C11.8831 16.7616 13.6025 16.8982 13.8139 16.9189L13.818 16.9136C14.7063 19.0948 13.3346 22.2087 9.96675 22.0317L9.9479 22.0564C9.9445 22.0474 9.94141 22.0385 9.93801 22.0295C9.93183 22.0289 9.92534 22.0286 9.91916 22.028L9.93152 22.0116C9.42153 20.6392 9.70125 19.1127 10.6603 18.0793Z" fill="#8BC79A"/>
<path d="M17.3754 19.4391C18.1036 18.1069 17.3884 16.6073 17.2972 16.4238L17.3003 16.4195C15.0854 16.0416 12.8377 17.8431 14.1596 20.7973L14.1445 20.8186C14.1535 20.8198 14.1624 20.8211 14.1714 20.8223C14.1742 20.8279 14.1766 20.8334 14.1791 20.839L14.189 20.8248C15.566 21.0191 16.8039 20.484 17.3754 19.4391Z" fill="#8EB693"/>
<path d="M15.4283 20.6907C15.8947 19.3625 15.1715 18.2216 15.08 18.0829L15.0822 18.0782C13.2459 18.2602 11.5889 20.3481 12.9424 22.6155L12.9318 22.6374C12.9393 22.6365 12.9467 22.6353 12.9541 22.6343C12.9569 22.6387 12.9594 22.6427 12.9621 22.647L12.9689 22.6325C14.1067 22.4842 15.0624 21.7325 15.4283 20.6907Z" fill="#79A084"/>
<path d="M12.9248 22.6519C12.9322 22.6577 12.9403 22.6633 12.9477 22.6692C12.9464 22.6753 12.9449 22.6815 12.9433 22.6877L12.9625 22.6806C14.1237 23.5732 15.6655 23.757 16.9364 23.1465C18.557 22.3683 18.9347 20.6857 18.9773 20.4778" fill="#FFF8BB"/>
<path d="M18.9779 20.4784L18.9838 20.4763C17.1618 18.9837 13.78 19.3733 12.9542 22.6417L12.9248 22.6522" fill="#79AC86"/>
<path d="M11.1685 17.549C10.0416 16.5313 8.41609 16.8786 8.21611 16.9246L8.2124 16.9206C7.32996 18.9862 8.56105 21.59 11.7428 20.991L11.7598 21.0108C11.7632 21.0024 11.7663 20.9938 11.7697 20.9854C11.7755 20.9842 11.7817 20.983 11.7876 20.9817L11.7762 20.9687C12.2855 19.6749 12.0525 18.3473 11.1685 17.549Z" fill="#8EB693"/>
<path d="M10.2364 23.3023C11.9768 23.7531 13.3517 22.7116 13.5182 22.5803L13.5244 22.5825C13.096 20.2669 10.2614 18.3832 7.52044 20.3472L7.49138 20.3364C7.49324 20.3456 7.49571 20.3549 7.49757 20.3645C7.49262 20.3685 7.48737 20.3719 7.48242 20.3759L7.50159 20.383C7.81222 21.8138 8.87114 22.9489 10.2364 23.3023Z" fill="#79A084"/>
<path d="M1.36523 11.8329C2.70172 12.4322 4.24406 12.2537 5.33915 11.3654C6.73498 10.2328 6.71242 8.50888 6.70562 8.29663" fill="#84BC92"/>
<path d="M6.70526 8.29652L6.71051 8.29313C4.59173 7.2634 1.39269 8.42566 1.34725 11.7966L1.32129 11.8136C1.32994 11.8176 1.33891 11.8213 1.34756 11.8253C1.34756 11.8318 1.34756 11.838 1.34787 11.8442L1.36487 11.8328" fill="#8BC79A"/>
<path d="M3.13014 1.91147C4.01382 0.346633 5.71843 0.0809376 5.92892 0.0518963L5.93139 0.0460205C7.30126 1.96182 6.68926 5.30899 3.37185 5.917L3.35949 5.94543C3.35392 5.9374 3.34898 5.92936 3.34372 5.92133C3.33754 5.92226 3.33136 5.92349 3.32487 5.92442L3.33321 5.90557C2.51846 4.68862 2.43686 3.13892 3.13014 1.91147Z" fill="#DFCF55"/>
<path d="M2.83434 7.70953C2.83341 7.70057 2.8331 7.6913 2.83248 7.68234C2.82722 7.67925 2.82166 7.67647 2.81641 7.67338L2.83124 7.66442C2.72801 6.27816 3.34371 5.07882 4.42458 4.57801C5.80249 3.93941 7.25241 4.75195 7.42951 4.85514L7.43415 4.85236" fill="#698B73"/>
<path d="M7.4338 4.85242C7.66499 7.08644 5.71806 9.20954 2.85624 7.696L2.83398 7.7099" fill="#DFCF55"/>
<path d="M5.88909 0.0216798L5.89218 0.0161133C3.5694 0.0556589 1.27505 2.50533 2.74012 5.48979L2.72498 5.51635" fill="#FFF8BB"/>
<path d="M0.938082 8.79952C0.939318 8.79211 0.941173 8.78469 0.942719 8.77759C0.938701 8.7745 0.934682 8.77172 0.930664 8.76893L0.945809 8.76307C1.16897 7.63818 1.98249 6.7345 3.04667 6.43853C4.40325 6.06099 5.49463 6.85746 5.62692 6.95787" fill="#79A084"/>
<path d="M5.627 6.95754L5.63164 6.95569C5.32873 8.7751 3.13515 10.2902 0.961039 8.79023L0.938477 8.79919" fill="#698B73"/>
<path d="M0.694595 4.77108C1.57827 3.20625 3.28288 2.94055 3.49337 2.91151L3.49584 2.90564C4.86571 4.82144 4.25372 8.16861 0.936302 8.77662L0.923938 8.80504C0.918374 8.79701 0.913429 8.78898 0.908174 8.78094C0.901993 8.78187 0.895811 8.78311 0.88932 8.78404L0.897666 8.76519C0.0829161 7.54823 0.00131537 5.99854 0.694595 4.77108Z" fill="#8BC79A"/>
<path d="M3.50368 2.89333L3.50615 2.88745C1.10857 3.15222 -0.954268 5.86357 0.938883 8.75597L0.926519 8.78439" fill="#DFCF55"/>
<path d="M5.08691 18.6591C5.09619 18.6566 5.10515 18.6535 5.11442 18.651C5.11875 18.6557 5.12246 18.6606 5.12679 18.6655L5.13266 18.6458C6.54055 18.2413 7.60349 17.1103 7.86652 15.7253C8.20188 13.9596 7.07125 12.6571 6.92907 12.4995" fill="#DFCF55"/>
<path d="M6.92987 12.4996L6.93173 12.4934C4.64851 13.0733 2.95503 16.025 5.09637 18.6292L5.08741 18.6588" fill="#8BC79A"/>
<path d="M2.85613 12.8619C2.84685 12.8594 2.83789 12.8563 2.82862 12.8539C2.82429 12.8585 2.82058 12.8634 2.81625 12.8684L2.81038 12.8486C1.4025 12.4442 0.339549 11.3131 0.0765167 9.9281C-0.258841 8.16245 0.871797 6.85992 1.01398 6.70235L1.01212 6.69617" fill="#FFF8BB"/>
<path d="M1.01172 6.69617C3.29494 7.27607 4.98842 10.2278 2.84707 12.8319L2.85604 12.8616" fill="#DED177"/>
<path d="M3.56234 14.5158C2.58842 13.5234 2.28459 12.2101 2.78685 11.1303C3.42697 9.7536 5.05925 9.43909 5.26108 9.40356" fill="#8EB693"/>
<path d="M5.26094 9.40369L5.26279 9.39844C6.88178 10.9562 6.76526 13.8334 3.60177 14.5233L3.59373 14.5483C3.58724 14.5418 3.58106 14.5353 3.57457 14.5289C3.56869 14.5301 3.56251 14.5313 3.55664 14.5323L3.5622 14.5159" fill="#698B73"/>
<path d="M2.82289 16.585L2.83062 16.5708C2.27488 15.5673 2.3129 14.3526 2.93447 13.4399C3.72697 12.2764 5.07489 12.1809 5.24087 12.1723L5.24334 12.168" fill="#698B73"/>
<path d="M5.2437 12.168C6.18703 13.7532 5.48942 16.3255 2.86033 16.5822L2.8489 16.6036C2.84519 16.5971 2.84179 16.5903 2.83808 16.5838C2.83314 16.5841 2.82819 16.5847 2.82324 16.585" fill="#DFCF55"/>
<path d="M2.84148 16.6175C2.83221 16.615 2.82324 16.6119 2.81397 16.6095C2.80964 16.6141 2.80593 16.619 2.80161 16.624L2.79573 16.6042C1.38785 16.1998 0.3249 15.0687 0.0618683 13.6837C-0.27349 11.9181 0.857149 10.6155 0.999328 10.458L0.997472 10.4518" fill="#84BC92"/>
<path d="M0.99707 10.4519C3.28029 11.0318 4.97377 13.9835 2.83242 16.5877L2.84139 16.6173" fill="#8BC79A"/>
<path d="M5.10502 18.6263L5.0973 18.6121C5.65303 17.6086 5.61502 16.3938 4.99344 15.4812C4.20095 14.3177 2.85302 14.2222 2.68705 14.2136L2.68457 14.2092" fill="#8EB693"/>
<path d="M2.68523 14.2092C1.7419 15.7945 2.4395 18.3668 5.06859 18.6235L5.08002 18.6448C5.08373 18.6383 5.08714 18.6315 5.09085 18.6251C5.09579 18.6254 5.10074 18.626 5.10568 18.6263" fill="#698B73"/>
<path d="M19.025 18.6942L19.0328 18.68C18.477 17.6766 18.515 16.4618 19.1366 15.5491C19.9291 14.3856 21.277 14.2901 21.443 14.2815" fill="#8EB693"/>
<path d="M21.4434 14.2817L21.4458 14.2773C22.3892 15.8626 21.6916 18.4349 19.0625 18.6916L19.051 18.7129C19.0473 18.7065 19.0439 18.6997 19.0402 18.6932C19.0353 18.6935 19.0303 18.6941 19.0254 18.6944" fill="#698B73"/>
<path d="M17.5938 20.46C19.0016 20.0556 20.0646 18.9246 20.3276 17.5395C20.663 15.7739 19.5323 14.4714 19.3902 14.3138L19.392 14.3076" fill="#79AC86"/>
<path d="M19.3927 14.3076C17.1094 14.8875 15.416 17.8392 17.5573 20.4434L17.5483 20.473C17.5576 20.4706 17.5666 20.4675 17.5759 20.465C17.5802 20.4696 17.5839 20.4746 17.5882 20.4795L17.5941 20.4597" fill="#698B73"/>
<path d="M5.98115 20.1474C5.98702 20.1461 5.9932 20.1449 5.99907 20.1434L5.98764 20.1304C6.48928 18.834 6.24851 17.5074 5.35989 16.7146C4.22709 15.7037 2.60346 16.0603 2.4041 16.1075L2.40039 16.1035" fill="#FFF8BB"/>
<path d="M2.40092 16.1035C1.53054 18.1744 2.77677 20.7708 5.95479 20.1532L5.9721 20.173C5.9755 20.1647 5.97859 20.156 5.98168 20.1474" fill="#8BC79A"/>
<path d="M6.23633 19.8843L6.2388 19.8685C7.29371 19.4175 8.00986 18.435 8.07941 17.333C8.16811 15.9282 7.16266 15.0257 7.03717 14.917" fill="#698B73"/>
<path d="M7.03783 14.917L7.03876 14.9121C5.32055 15.5847 4.2916 18.0433 6.20948 19.8593L6.20546 19.8834C6.21257 19.8806 6.21906 19.8772 6.22617 19.8745C6.22988 19.8779 6.23359 19.8813 6.2373 19.8844" fill="#DED177"/>
<path d="M19.6705 20.8894C21.176 19.9075 21.3321 18.1901 21.3473 17.9785L21.3528 17.9754C19.3521 16.7318 16.0498 17.5571 15.6554 20.9051L15.6279 20.9194C15.6363 20.9243 15.6446 20.9289 15.653 20.9336C15.6523 20.9397 15.6517 20.9462 15.6511 20.9524L15.6693 20.9428C16.9369 21.6775 18.4894 21.6596 19.6705 20.8894Z" fill="#8BC79A"/>
<path d="M7.18666 18.9221C7.97915 17.7586 9.32708 17.6631 9.49305 17.6545L9.49553 17.6501C10.4389 19.2354 9.74125 21.8077 7.11217 22.0644L7.10073 22.0857C7.09702 22.0793 7.09362 22.0725 7.08991 22.066C7.08497 22.0663 7.08002 22.0669 7.07508 22.0672L7.0828 22.053C6.52676 21.0498 6.56478 19.8347 7.18666 18.9221Z" fill="#698B73"/>
<path d="M8.82994 22.1122C8.82098 22.1159 8.81202 22.119 8.80305 22.1224C8.80274 22.1286 8.80243 22.1351 8.80181 22.1413L8.78512 22.1292C7.42051 22.6612 5.88899 22.4063 4.83934 21.4647C3.50161 20.2641 3.6101 18.5432 3.62741 18.3316L3.62216 18.3279" fill="#84BC92"/>
<path d="M3.62305 18.3279C5.79036 17.4047 8.92758 18.7249 8.80518 22.094L8.83022 22.1122" fill="#8BC79A"/>
<path d="M21.3443 17.946L21.3499 17.9429C19.3492 16.6994 16.0469 17.5246 15.6525 20.8727L15.625 20.8869" fill="#FFF8BB"/>
<path d="M12.0367 24.3125C14.7084 24.3125 16.8742 22.1476 16.8742 19.4771C16.8742 16.8066 14.7084 14.6417 12.0367 14.6417C9.36504 14.6417 7.19922 16.8066 7.19922 19.4771C7.19922 22.1476 9.36504 24.3125 12.0367 24.3125Z" fill="#DFCF55"/>
<path d="M12.067 22.862C13.954 22.862 15.4837 21.333 15.4837 19.4469C15.4837 17.5607 13.954 16.0317 12.067 16.0317C10.1801 16.0317 8.65039 17.5607 8.65039 19.4469C8.65039 21.333 10.1801 22.862 12.067 22.862Z" fill="#FFF8BB"/>
<path d="M13.1674 21.5857L12.2027 21.0892C12.0946 21.0336 11.9669 21.0345 11.8615 21.0917L10.9216 21.6017C10.6561 21.7457 10.3362 21.5186 10.3801 21.2171L10.5358 20.15C10.5531 20.0304 10.5108 19.9087 10.4224 19.8246L9.6333 19.0754C9.41045 18.8638 9.52141 18.4915 9.82091 18.4455L10.882 18.2824C11.001 18.2641 11.1024 18.1878 11.1531 18.0788L11.6056 17.1056C11.7332 16.8309 12.1217 16.8281 12.263 17.1009L12.7631 18.0673C12.819 18.1758 12.9241 18.2502 13.0441 18.2669L14.1129 18.4149C14.4145 18.4566 14.5437 18.827 14.3314 19.0418L13.5794 19.8021C13.495 19.8874 13.4585 20.0097 13.482 20.129L13.6901 21.1936C13.7488 21.4942 13.44 21.7259 13.1674 21.5857Z" fill="#DFCF56"/>
<path opacity="0.29" d="M8.41113 16.2595C10.1856 14.2631 13.2434 14.0827 15.2407 15.8567C17.238 17.6304 17.4185 20.6868 15.6437 22.6832" fill="white"/>
<path d="M8.75935 15.3288L8.31859 10.7644C8.29572 10.5259 8.60326 10.381 8.80726 10.5342L10.7233 11.9736C10.8778 12.0898 11.1127 12.0376 11.19 11.8704L11.7658 10.6238C11.8678 10.4029 12.2149 10.4029 12.3172 10.6238L12.8903 11.8642C12.9675 12.0317 13.2025 12.0836 13.357 11.9674L15.2662 10.5333C15.4702 10.38 15.7778 10.5249 15.7549 10.7635L15.3141 15.3279C15.2956 15.5191 15.0672 15.6322 14.8783 15.5432L14.2703 15.2568C14.2277 15.2367 14.1801 15.2262 14.1322 15.2262H9.94345C9.89523 15.2262 9.84794 15.2367 9.80529 15.2568L9.19485 15.5441C9.0063 15.6331 8.77789 15.52 8.75935 15.3288Z" fill="#DFCF56"/>
<path d="M8.38075 16.1633H15.7809C15.8158 16.1633 15.8442 16.1349 15.8442 16.1V14.811C15.8442 14.7761 15.8158 14.7477 15.7809 14.7477H8.38075C8.34582 14.7477 8.31738 14.7761 8.31738 14.811V16.1C8.31738 16.1352 8.34582 16.1633 8.38075 16.1633Z" fill="#C8BB4D"/>
<path d="M12.0273 10.66C12.3729 10.66 12.6532 10.4072 12.6532 10.0953C12.6532 9.78337 12.3729 9.53052 12.0273 9.53052C11.6816 9.53052 11.4014 9.78337 11.4014 10.0953C11.4014 10.4072 11.6816 10.66 12.0273 10.66Z" fill="#F39781"/>
<path d="M8.30852 10.851C8.65419 10.851 8.93441 10.5981 8.93441 10.2862C8.93441 9.97429 8.65419 9.72144 8.30852 9.72144C7.96284 9.72144 7.68262 9.97429 7.68262 10.2862C7.68262 10.5981 7.96284 10.851 8.30852 10.851Z" fill="#F39781"/>
<path d="M15.7646 10.851C16.1102 10.851 16.3905 10.5981 16.3905 10.2862C16.3905 9.97429 16.1102 9.72144 15.7646 9.72144C15.4189 9.72144 15.1387 9.97429 15.1387 10.2862C15.1387 10.5981 15.4189 10.851 15.7646 10.851Z" fill="#F39781"/>
<path opacity="0.29" d="M8.62524 14.7638H8.70281L8.42247 11.86L13.2093 16.1794H8.62554C8.45523 16.1794 8.31738 16.0549 8.31738 15.9014V15.0422C8.31707 14.8883 8.45493 14.7638 8.62524 14.7638Z" fill="white"/>
</svg>
