<svg width="24" height="25" viewBox="0 0 24 25" fill="none" xmlns="http://www.w3.org/2000/svg">
<path d="M22.6345 11.8166C21.298 12.4159 19.7557 12.2374 18.6606 11.3492C17.2648 10.2166 17.2874 8.49264 17.2942 8.2804" fill="#FFF7BC"/>
<path d="M17.2943 8.28065L17.2891 8.27725C19.4078 7.24754 22.6068 8.40979 22.6523 11.7807L22.6782 11.7977C22.6696 11.8017 22.6606 11.8054 22.6519 11.8094C22.6519 11.8159 22.6519 11.8221 22.6516 11.8283L22.6346 11.8168" fill="#ECE179"/>
<path d="M20.8697 1.89533C19.9861 0.330516 18.2815 0.0648239 18.071 0.0357829L18.0685 0.0299072C16.6987 1.94568 17.3107 5.29281 20.628 5.90081L20.6404 5.92924C20.646 5.92121 20.6509 5.91318 20.6562 5.90514C20.6623 5.90607 20.6685 5.9073 20.675 5.90823L20.6667 5.88939C21.4811 4.67276 21.563 3.12277 20.8697 1.89533Z" fill="#DFCF55"/>
<path d="M21.1652 7.69337C21.1661 7.68441 21.1664 7.67515 21.167 7.66619C21.1723 7.6631 21.1779 7.66032 21.1831 7.65723L21.1683 7.64827C21.2715 6.26202 20.6558 5.0627 19.575 4.5619C18.1971 3.9233 16.7472 4.73583 16.5701 4.83902L16.5654 4.83624" fill="#DFCF55"/>
<path d="M16.5655 4.8363C16.3343 7.07029 18.2812 9.19337 21.143 7.67985L21.1652 7.69375" fill="#DFCF55"/>
<path d="M18.1105 0.00556646L18.1074 0C20.4302 0.0395451 22.7245 2.48919 21.2594 5.47361L21.2746 5.50017" fill="#FFF8BB"/>
<path d="M23.0608 8.78338C23.0596 8.77596 23.0578 8.76855 23.0562 8.76144C23.0602 8.75835 23.0642 8.75557 23.0683 8.75279L23.0531 8.74692C22.83 7.62205 22.0165 6.71838 20.9523 6.42241C19.5957 6.04488 18.5044 6.84134 18.3721 6.94175" fill="#EFE5A2"/>
<path d="M18.3728 6.94167L18.3682 6.93982C18.6711 8.7592 20.8646 10.2743 23.0387 8.77434L23.0613 8.7833" fill="#FFF7BC"/>
<path d="M23.3053 4.75495C22.4216 3.19013 20.717 2.92444 20.5065 2.89539L20.5041 2.88953C19.1342 4.8053 19.7462 8.15243 23.0636 8.76043L23.0759 8.78885C23.0815 8.78082 23.0865 8.7728 23.0917 8.76476C23.0979 8.76569 23.1041 8.76692 23.1106 8.76785L23.1022 8.74901C23.9166 7.53238 23.9985 5.9827 23.3053 4.75495Z" fill="#EFE5A2"/>
<path d="M20.4966 2.87757L20.4941 2.8717C22.8917 3.13647 24.9545 5.84778 23.0614 8.73983L23.0737 8.76825" fill="#DFCF55"/>
<path d="M18.9118 18.6427C18.9025 18.6403 18.8935 18.6372 18.8842 18.6347C18.8799 18.6393 18.8762 18.6443 18.8719 18.6492L18.866 18.6295C17.4581 18.225 16.3952 17.094 16.1322 15.709C15.7968 13.9434 16.9275 12.6408 17.0696 12.4833" fill="#DFCF55"/>
<path d="M17.0702 12.4832L17.0684 12.4771C19.3515 13.0569 21.045 16.0086 18.9037 18.6127L18.9127 18.6424" fill="#EFE5A2"/>
<path d="M21.1445 12.8457C21.1538 12.8432 21.1628 12.8401 21.172 12.8377C21.1764 12.8423 21.1801 12.8472 21.1844 12.8522L21.1903 12.8324C22.5981 12.428 23.6611 11.2969 23.9241 9.91194C24.2595 8.14632 23.1288 6.8438 22.9867 6.68624L22.9885 6.68005" fill="#FFF8BB"/>
<path d="M22.9874 6.68005C20.7042 7.25995 19.0107 10.2116 21.152 12.8157L21.1431 12.8454" fill="#DFCF55"/>
<path d="M20.438 14.4995C21.4119 13.5071 21.7157 12.1938 21.2135 11.114C20.5734 9.73736 18.9411 9.42286 18.7393 9.38733" fill="#DFCF55"/>
<path d="M18.7384 9.38757L18.7369 9.38232C17.1179 10.94 17.2344 13.8172 20.3979 14.5071L20.4059 14.5321C20.4124 14.5257 20.4186 14.5192 20.4251 14.5127C20.431 14.5139 20.4371 14.5152 20.443 14.5161L20.4374 14.4997" fill="#FFF7BC"/>
<path d="M21.1763 16.5687L21.1686 16.5545C21.7243 15.5511 21.6863 14.3363 21.0647 13.4237C20.2722 12.2602 18.9243 12.1647 18.7583 12.1561L18.7559 12.1517" fill="#EFE5A2"/>
<path d="M18.7565 12.1517C17.8132 13.7369 18.5108 16.3092 21.1398 16.566L21.1513 16.5873C21.155 16.5808 21.1584 16.574 21.1621 16.5675C21.167 16.5678 21.172 16.5684 21.1769 16.5687" fill="#EFE5A2"/>
<path d="M21.1582 16.6016C21.1675 16.5991 21.1764 16.596 21.1857 16.5935C21.19 16.5982 21.1937 16.6031 21.1981 16.608L21.2039 16.5883C22.6118 16.1839 23.6747 15.0528 23.9378 13.6678C24.2731 11.9022 23.1425 10.5997 23.0003 10.4421L23.0022 10.4359" fill="#DFCF55"/>
<path d="M23.003 10.4359C20.7198 11.0158 19.0263 13.9675 21.1677 16.5716L21.1587 16.6012" fill="#EFE5A2"/>
<path d="M8.88045 22.026L8.88571 22.0297C9.06775 19.6821 6.81332 17.1326 3.65914 18.3258L3.63379 18.3079" fill="#79AC86"/>
<path d="M10.6605 18.0789C11.8832 16.7612 13.6029 16.8978 13.814 16.9185L13.8181 16.9132C14.7064 19.0944 13.3346 22.2083 9.96689 22.0312L9.94804 22.056C9.94464 22.047 9.94155 22.038 9.93815 22.0291C9.93197 22.0285 9.92547 22.0281 9.91929 22.0275L9.93166 22.0112C9.42136 20.6388 9.70139 19.1123 10.6605 18.0789Z" fill="#8BC79A"/>
<path d="M17.3753 19.4389C18.1035 18.1067 17.3883 16.6071 17.2971 16.4235L17.3002 16.4192C15.0853 16.0414 12.8377 17.8428 14.1596 20.797L14.1445 20.8183C14.1535 20.8195 14.1624 20.8208 14.1717 20.822C14.1745 20.8276 14.177 20.8331 14.1794 20.8387L14.1893 20.8245C15.566 21.0188 16.8038 20.4837 17.3753 19.4389Z" fill="#FCF5CC"/>
<path d="M15.4283 20.6904C15.8947 19.3623 15.1715 18.2214 15.08 18.0826L15.0821 18.078C13.2459 18.26 11.5889 20.3478 12.9424 22.6152L12.9318 22.6371C12.9393 22.6362 12.9467 22.635 12.9541 22.634C12.9569 22.6384 12.9594 22.6424 12.9621 22.6467L12.9689 22.6322C14.1067 22.4839 15.0623 21.7322 15.4283 20.6904Z" fill="#79A084"/>
<path d="M12.9248 22.6516C12.9322 22.6575 12.9403 22.663 12.9477 22.6689C12.9464 22.6751 12.9449 22.6813 12.9434 22.6874L12.9625 22.6803C14.1237 23.5729 15.6654 23.7567 16.9364 23.1462C18.5569 22.368 18.9346 20.6855 18.9772 20.4775" fill="#EFE5A2"/>
<path d="M18.9776 20.4782L18.9837 20.476C17.1617 18.9835 13.78 19.3731 12.9542 22.6414L12.9248 22.6519" fill="#79AC86"/>
<path d="M11.1694 17.5487C10.0425 16.531 8.41706 16.8783 8.21708 16.9243L8.21337 16.9203C7.33094 18.9859 8.56201 21.5897 11.7437 20.9907L11.7607 21.0105C11.7641 21.0021 11.7672 20.9935 11.7706 20.9851C11.7765 20.9839 11.7827 20.9827 11.7885 20.9814L11.7771 20.9684C12.2865 19.6746 12.0534 18.347 11.1694 17.5487Z" fill="#8EB693"/>
<path d="M10.2363 23.302C11.9768 23.7528 13.3516 22.7113 13.5182 22.58L13.5244 22.5822C13.096 20.2666 10.2614 18.383 7.52044 20.3469L7.49139 20.3361C7.49324 20.3454 7.49571 20.3547 7.49757 20.3642C7.49262 20.3683 7.48737 20.3717 7.48242 20.3757L7.50158 20.3828C7.81221 21.8135 8.87112 22.9486 10.2363 23.302Z" fill="#79A084"/>
<path d="M1.36523 11.8326C2.7017 12.4319 4.24402 12.2534 5.3391 11.3652C6.73492 10.2326 6.71235 8.50863 6.70555 8.29639" fill="#EFE5A2"/>
<path d="M6.70616 8.29639L6.71142 8.293C4.59266 7.26328 1.39367 8.42554 1.34823 11.7964L1.32227 11.8134C1.33092 11.8175 1.33989 11.8212 1.34854 11.8252C1.34854 11.8317 1.34854 11.8378 1.34885 11.844L1.36584 11.8326" fill="#DFCF55"/>
<path d="M3.13014 1.91144C4.0138 0.346629 5.71839 0.0809372 5.92887 0.0518962L5.93134 0.0460205C7.30119 1.9618 6.68922 5.30892 3.37184 5.91693L3.35947 5.94535C3.35391 5.93732 3.34896 5.92929 3.34371 5.92126C3.33753 5.92218 3.33135 5.92341 3.32486 5.92434L3.3332 5.9055C2.51846 4.68856 2.43687 3.13889 3.13014 1.91144Z" fill="#DFCF55"/>
<path d="M2.83433 7.70948C2.8334 7.70052 2.83309 7.69126 2.83247 7.6823C2.82722 7.67921 2.82166 7.67643 2.81641 7.67334L2.83124 7.66438C2.72801 6.27814 3.34369 5.07881 4.42455 4.57801C5.80244 3.93942 7.25235 4.75194 7.42945 4.85513L7.43409 4.85235" fill="#DFCF55"/>
<path d="M7.43374 4.85229C7.66494 7.08629 5.71803 9.20936 2.85624 7.69584L2.83398 7.70974" fill="#DFCF55"/>
<path d="M5.88904 0.0216797L5.89214 0.0161133C3.56939 0.0556584 1.27507 2.5053 2.74011 5.48972L2.72497 5.51628" fill="#FFF8BB"/>
<path d="M0.938082 8.79937C0.939318 8.79195 0.94117 8.78454 0.942715 8.77743C0.938697 8.77434 0.934682 8.77156 0.930664 8.76878L0.945809 8.76291C1.16897 7.63804 1.98247 6.73437 3.04664 6.4384C4.4032 6.06087 5.49457 6.85733 5.62685 6.95774" fill="#ECE179"/>
<path d="M5.62694 6.95742L5.63157 6.95557C5.32867 8.77495 3.13512 10.29 0.961039 8.79009L0.938477 8.79905" fill="#EFE5A2"/>
<path d="M0.694589 4.77106C1.57825 3.20625 3.28284 2.94055 3.49333 2.91151L3.4958 2.90564C4.86565 4.82142 4.25367 8.16854 0.936293 8.77655L0.923933 8.80497C0.918369 8.79693 0.913424 8.7889 0.908169 8.78087C0.901988 8.7818 0.895803 8.78303 0.889312 8.78396L0.897658 8.76511C0.082918 7.54817 0.00131825 5.9985 0.694589 4.77106Z" fill="#EFE5A2"/>
<path d="M3.50364 2.89333L3.5061 2.88745C1.10855 3.15222 -0.954252 5.86354 0.938875 8.75589L0.926507 8.78431" fill="#DFCF55"/>
<path d="M5.08789 18.6589C5.09716 18.6564 5.10612 18.6533 5.1154 18.6508C5.11972 18.6555 5.12344 18.6604 5.12776 18.6653L5.13363 18.6456C6.5415 18.2412 7.60443 17.1101 7.86746 15.7251C8.20282 13.9595 7.07219 12.657 6.93001 12.4994" fill="#DFCF55"/>
<path d="M6.92983 12.4993L6.93169 12.4932C4.6485 13.0731 2.95504 16.0247 5.09636 18.6288L5.0874 18.6585" fill="#FCF5CC"/>
<path d="M2.85609 12.8617C2.84681 12.8592 2.83785 12.8561 2.82858 12.8537C2.82425 12.8583 2.82055 12.8632 2.81622 12.8682L2.81034 12.8484C1.40248 12.444 0.339545 11.3129 0.0765159 9.92793C-0.258838 8.16231 0.871786 6.85979 1.01396 6.70223L1.01211 6.69604" fill="#FFF7BC"/>
<path d="M1.0127 6.69604C3.29588 7.27594 4.98935 10.2276 2.84803 12.8317L2.85698 12.8614" fill="#EFE5A2"/>
<path d="M3.56233 14.5156C2.58842 13.5232 2.28459 12.2099 2.78685 11.1301C3.42695 9.75348 5.05922 9.43897 5.26105 9.40344" fill="#CABD4D"/>
<path d="M5.26091 9.40344L5.26277 9.39819C6.88174 10.9559 6.76522 13.8331 3.60177 14.523L3.59373 14.548C3.58724 14.5415 3.58105 14.535 3.57456 14.5285C3.56869 14.5298 3.56251 14.531 3.55664 14.532L3.5622 14.5156" fill="#EFE5A2"/>
<path d="M2.82289 16.5849L2.83062 16.5706C2.27489 15.5672 2.3129 14.3524 2.93446 13.4398C3.72695 12.2763 5.07486 12.1808 5.24084 12.1722L5.2433 12.1678" fill="#EFE5A2"/>
<path d="M5.24366 12.1678C6.18697 13.753 5.48938 16.3253 2.86033 16.5821L2.84889 16.6034C2.84518 16.5969 2.84179 16.5901 2.83808 16.5836C2.83313 16.5839 2.82819 16.5845 2.82324 16.5849" fill="#DFCF55"/>
<path d="M2.84144 16.6173C2.83217 16.6148 2.82321 16.6117 2.81393 16.6093C2.80961 16.6139 2.8059 16.6188 2.80157 16.6238L2.7957 16.604C1.38783 16.1996 0.324896 15.0686 0.0618675 13.6835C-0.273486 11.9179 0.857138 10.6154 0.999315 10.4578L0.997459 10.4517" fill="#DFCF55"/>
<path d="M0.99707 10.4517C3.28026 11.0316 4.97372 13.9832 2.8324 16.5873L2.84136 16.617" fill="#EFE5A2"/>
<path d="M5.10596 18.6261L5.09823 18.6119C5.65396 17.6084 5.61595 16.3937 4.99439 15.481C4.2019 14.3175 2.85399 14.2221 2.68801 14.2134L2.68555 14.2091" fill="#DFCF55"/>
<path d="M2.68522 14.2091C1.74191 15.7943 2.4395 18.3666 5.06855 18.6233L5.07999 18.6446C5.0837 18.6382 5.08709 18.6314 5.0908 18.6249C5.09575 18.6252 5.10069 18.6258 5.10564 18.6261" fill="#EFE5A2"/>
<path d="M19.025 18.6941L19.0328 18.6798C18.477 17.6764 18.5151 16.4616 19.1366 15.549C19.9291 14.3855 21.277 14.29 21.443 14.2814" fill="#FCF5CC"/>
<path d="M21.4433 14.2813L21.4458 14.277C22.3891 15.8622 21.6915 18.4345 19.0625 18.6912L19.051 18.7125C19.0473 18.706 19.0439 18.6992 19.0402 18.6927C19.0353 18.6931 19.0303 18.6937 19.0254 18.694" fill="#FFF7BC"/>
<path d="M17.5938 20.4596C19.0016 20.0552 20.0645 18.9241 20.3276 17.5391C20.6629 15.7735 19.5323 14.471 19.3901 14.3134L19.392 14.3073" fill="#DFCF55"/>
<path d="M19.3926 14.3073C17.1094 14.8871 15.416 17.8388 17.5573 20.4429L17.5483 20.4726C17.5576 20.4701 17.5666 20.467 17.5758 20.4646C17.5802 20.4692 17.5839 20.4741 17.5882 20.4791L17.5941 20.4593" fill="#FFF7BC"/>
<path d="M5.98142 20.147C5.98729 20.1457 5.99347 20.1445 5.99935 20.1429L5.98791 20.13C6.48955 18.8336 6.24877 17.507 5.36016 16.7142C4.22737 15.7034 2.60377 16.0599 2.4041 16.1072L2.40039 16.1031" fill="#FFF7BC"/>
<path d="M2.40092 16.1031C1.53055 18.174 2.77676 20.7704 5.95474 20.1528L5.97205 20.1726C5.97545 20.1643 5.97855 20.1556 5.98164 20.147" fill="#EFE5A2"/>
<path d="M6.23633 19.8841L6.2388 19.8684C7.2937 19.4173 8.00984 18.4348 8.07938 17.3328C8.16809 15.928 7.16264 15.0256 7.03716 14.9169" fill="#EFE5A2"/>
<path d="M7.0378 14.9168L7.03873 14.9119C5.32054 15.5844 4.29162 18.043 6.20947 19.859L6.20545 19.8831C6.21256 19.8803 6.21904 19.8769 6.22615 19.8742C6.22986 19.8776 6.23357 19.881 6.23728 19.884" fill="#FFF7BC"/>
<path d="M19.6714 20.8891C21.1769 19.9073 21.333 18.1898 21.3482 17.9782L21.3537 17.9751C19.353 16.7316 16.0508 17.5568 15.6564 20.9049L15.6289 20.9191C15.6373 20.924 15.6456 20.9286 15.6539 20.9333C15.6533 20.9395 15.6527 20.946 15.6521 20.9521L15.6703 20.9426C16.9379 21.6772 18.4904 21.6593 19.6714 20.8891Z" fill="#DED177"/>
<path d="M7.18665 18.9217C7.97914 17.7582 9.32705 17.6628 9.49302 17.6541L9.49549 17.6498C10.4388 19.235 9.74122 21.8073 7.11217 22.064L7.10073 22.0853C7.09702 22.0788 7.09362 22.072 7.08991 22.0655C7.08497 22.0659 7.08002 22.0665 7.07507 22.0668L7.0828 22.0526C6.52676 21.0494 6.56478 19.8343 7.18665 18.9217Z" fill="#698B73"/>
<path d="M8.82987 22.1119C8.8209 22.1156 8.81195 22.1187 8.80298 22.1221C8.80267 22.1283 8.80236 22.1348 8.80174 22.141L8.78505 22.1289C7.42046 22.6609 5.88896 22.406 4.83932 21.4644C3.50161 20.2638 3.6101 18.543 3.62741 18.3313L3.62215 18.3276" fill="#DFCF55"/>
<path d="M3.62305 18.3276C5.79033 17.4045 8.92752 18.7246 8.80512 22.0937L8.83015 22.1119" fill="#ECE179"/>
<path d="M21.3443 17.9457L21.3498 17.9427C19.3491 16.6991 16.0469 17.5243 15.6525 20.8724L15.625 20.8866" fill="#FFF7BC"/>
<path d="M12.0376 24.3122C14.7093 24.3122 16.8751 22.1474 16.8751 19.4769C16.8751 16.8064 14.7093 14.6416 12.0376 14.6416C9.36599 14.6416 7.2002 16.8064 7.2002 19.4769C7.2002 22.1474 9.36599 24.3122 12.0376 24.3122Z" fill="#DFCF55"/>
<path d="M12.067 22.8617C13.9539 22.8617 15.4836 21.3327 15.4836 19.4466C15.4836 17.5605 13.9539 16.0315 12.067 16.0315C10.18 16.0315 8.65039 17.5605 8.65039 19.4466C8.65039 21.3327 10.18 22.8617 12.067 22.8617Z" fill="#FFF8BB"/>
<path d="M13.1673 21.5855L12.2027 21.089C12.0945 21.0334 11.9669 21.0343 11.8615 21.0915L10.9216 21.6015C10.6561 21.7455 10.3362 21.5184 10.38 21.2169L10.5358 20.1498C10.5531 20.0302 10.5108 19.9085 10.4224 19.8245L9.6333 19.0753C9.41045 18.8637 9.52141 18.4914 9.82091 18.4453L10.882 18.2822C11.001 18.264 11.1024 18.1877 11.1531 18.0786L11.6056 17.1055C11.7332 16.8308 12.1217 16.828 12.263 17.1008L12.7631 18.0672C12.819 18.1756 12.9241 18.2501 13.044 18.2668L14.1128 18.4148C14.4145 18.4565 14.5437 18.8269 14.3313 19.0416L13.5794 19.8019C13.495 19.8872 13.4585 20.0095 13.482 20.1288L13.69 21.1934C13.7484 21.494 13.44 21.7257 13.1673 21.5855Z" fill="#DFCF56"/>
<path opacity="0.29" d="M8.41113 16.2592C10.1856 14.2627 13.2433 14.0823 15.2406 15.8563C17.2379 17.6299 17.4184 20.6864 15.6436 22.6828" fill="white"/>
<path d="M8.69879 15.3018L8.25804 10.7374C8.23517 10.4989 8.54271 10.354 8.7467 10.5072L10.6627 11.9466C10.8172 12.0628 11.0521 12.0106 11.1294 11.8434L11.7052 10.5968C11.8072 10.3759 12.1543 10.3759 12.2566 10.5968L12.8297 11.8372C12.9069 12.0047 13.1418 12.0566 13.2964 11.9404L15.2056 10.5063C15.4096 10.3531 15.7171 10.498 15.6942 10.7365L15.2535 15.3008C15.2349 15.4921 15.0065 15.6052 14.8177 15.5162L14.2097 15.2298C14.1671 15.2097 14.1195 15.1992 14.0716 15.1992H9.88289C9.83467 15.1992 9.78738 15.2097 9.74473 15.2298L9.13429 15.5171C8.94575 15.6061 8.71734 15.4933 8.69879 15.3018Z" fill="#DFCF56"/>
<path d="M8.3202 16.1365H15.7202C15.7552 16.1365 15.7836 16.1081 15.7836 16.0732V14.7843C15.7836 14.7494 15.7552 14.7209 15.7202 14.7209H8.3202C8.28527 14.7209 8.25684 14.7494 8.25684 14.7843V16.0732C8.25684 16.1081 8.28496 16.1365 8.3202 16.1365Z" fill="#C8BB4D"/>
<path d="M11.9677 10.6333C12.3134 10.6333 12.5936 10.3804 12.5936 10.0685C12.5936 9.75663 12.3134 9.50378 11.9677 9.50378C11.622 9.50378 11.3418 9.75663 11.3418 10.0685C11.3418 10.3804 11.622 10.6333 11.9677 10.6333Z" fill="#F39781"/>
<path d="M8.24796 10.8242C8.59363 10.8242 8.87385 10.5714 8.87385 10.2595C8.87385 9.94755 8.59363 9.6947 8.24796 9.6947C7.90229 9.6947 7.62207 9.94755 7.62207 10.2595C7.62207 10.5714 7.90229 10.8242 8.24796 10.8242Z" fill="#F39781"/>
<path d="M15.704 10.8242C16.0497 10.8242 16.3299 10.5714 16.3299 10.2595C16.3299 9.94755 16.0497 9.6947 15.704 9.6947C15.3583 9.6947 15.0781 9.94755 15.0781 10.2595C15.0781 10.5714 15.3583 10.8242 15.704 10.8242Z" fill="#F39781"/>
<path opacity="0.29" d="M8.565 14.7368H8.64258L8.36224 11.833L13.1487 16.1527H8.565C8.39469 16.1527 8.25684 16.0282 8.25684 15.8746V15.0155C8.25684 14.8616 8.39469 14.7368 8.565 14.7368Z" fill="white"/>
</svg>
