<svg width="24" height="25" viewBox="0 0 24 25" fill="none" xmlns="http://www.w3.org/2000/svg">
<path d="M22.6346 11.8168C21.2981 12.4161 19.7557 12.2376 18.6606 11.3493C17.2648 10.2167 17.2874 8.49277 17.2942 8.28052" fill="#84BC92"/>
<path d="M17.2943 8.28053L17.2891 8.27714C19.4078 7.2474 22.6069 8.40967 22.6523 11.7806L22.6783 11.7976C22.6696 11.8016 22.6607 11.8053 22.652 11.8094C22.652 11.8159 22.652 11.822 22.6517 11.8282L22.6347 11.8168" fill="#8BC79A"/>
<path d="M20.8698 1.89547C19.9861 0.330638 18.2815 0.0649407 18.071 0.0358994L18.0685 0.0300293C16.6987 1.94583 17.3107 5.293 20.6281 5.90101L20.6404 5.92943C20.646 5.9214 20.6509 5.91337 20.6562 5.90534C20.6624 5.90626 20.6686 5.9075 20.6751 5.90842L20.6667 5.88958C21.4815 4.67262 21.5631 3.12293 20.8698 1.89547Z" fill="#79A084"/>
<path d="M21.1652 7.69354C21.1662 7.68458 21.1665 7.67531 21.1671 7.66635C21.1724 7.66326 21.1779 7.66048 21.1832 7.65739L21.1683 7.64843C21.2716 6.26217 20.6559 5.06283 19.575 4.56202C18.1971 3.92342 16.7472 4.73596 16.5701 4.83915L16.5654 4.83637" fill="#698B73"/>
<path d="M16.5655 4.8363C16.3343 7.07032 18.2812 9.19343 21.143 7.67988L21.1653 7.69378" fill="#8EB693"/>
<path d="M18.1105 0.00556088L18.1074 0C20.4302 0.0395456 22.7246 2.48921 21.2595 5.47367L21.2746 5.50024" fill="#8EB693"/>
<path d="M23.0619 8.78341C23.0606 8.77599 23.0588 8.76858 23.0572 8.76147C23.0613 8.75839 23.0653 8.7556 23.0693 8.75282L23.0542 8.74695C22.831 7.62207 22.0175 6.71839 20.9533 6.42241C19.5967 6.04487 18.5053 6.84135 18.373 6.94176" fill="#79A084"/>
<path d="M18.3728 6.94155L18.3682 6.9397C18.6711 8.75911 20.8646 10.2742 23.0388 8.77424L23.0613 8.7832" fill="#698B73"/>
<path d="M23.3053 4.75509C22.4217 3.19026 20.717 2.92456 20.5066 2.89552L20.5041 2.88965C19.1342 4.80545 19.7462 8.15261 23.0636 8.76063L23.076 8.78905C23.0815 8.78102 23.0865 8.77299 23.0917 8.76495C23.0979 8.76588 23.1041 8.76712 23.1106 8.76804L23.1023 8.7492C23.917 7.53224 23.9986 5.98255 23.3053 4.75509Z" fill="#8BC79A"/>
<path d="M20.4966 2.87721L20.4941 2.87134C22.8917 3.13611 24.9546 5.84746 23.0614 8.73954L23.0738 8.76796" fill="#79AC86"/>
<path d="M18.9128 18.6429C18.9035 18.6405 18.8945 18.6374 18.8853 18.6349C18.8809 18.6395 18.8772 18.6445 18.8729 18.6494L18.867 18.6297C17.4591 18.2252 16.3962 17.0942 16.1332 15.7091C15.7978 13.9435 16.9284 12.641 17.0706 12.4834" fill="#79AC86"/>
<path d="M17.0702 12.4835L17.0684 12.4773C19.3516 13.0572 21.0451 16.0089 18.9037 18.613L18.9127 18.6427" fill="#8BC79A"/>
<path d="M21.1436 12.8459C21.1528 12.8434 21.1618 12.8403 21.1711 12.8379C21.1754 12.8425 21.1791 12.8474 21.1834 12.8524L21.1893 12.8326C22.5972 12.4282 23.6601 11.2971 23.9232 9.9121C24.2585 8.14645 23.1279 6.84392 22.9857 6.68635L22.9876 6.68018" fill="#8EB693"/>
<path d="M22.9884 6.68018C20.7052 7.26008 19.0117 10.2118 21.153 12.8159L21.1441 12.8456" fill="#79A084"/>
<path d="M20.438 14.4997C21.4119 13.5073 21.7158 12.194 21.2135 11.1142C20.5734 9.73749 18.9411 9.42298 18.7393 9.38745" fill="#8EB693"/>
<path d="M18.7387 9.38746L18.7369 9.3822C17.1179 10.9399 17.2344 13.8172 20.3979 14.5071L20.406 14.5321C20.4124 14.5256 20.4186 14.5191 20.4251 14.5126C20.431 14.5139 20.4372 14.5151 20.443 14.516L20.4375 14.4997" fill="#698B73"/>
<path d="M21.1763 16.569L21.1686 16.5548C21.7243 15.5514 21.6863 14.3366 21.0647 13.4239C20.2722 12.2604 18.9243 12.165 18.7583 12.1563L18.7559 12.152" fill="#698B73"/>
<path d="M18.7555 12.152C17.8122 13.7372 18.5098 16.3095 21.1389 16.5663L21.1503 16.5876C21.154 16.5811 21.1574 16.5743 21.1612 16.5678C21.1661 16.5681 21.171 16.5687 21.176 16.569" fill="#79A084"/>
<path d="M21.1582 16.6015C21.1675 16.599 21.1764 16.5959 21.1857 16.5935C21.19 16.5981 21.1937 16.6031 21.1981 16.608L21.2039 16.5882C22.6118 16.1838 23.6748 15.0527 23.9378 13.6677C24.2732 11.9021 23.1425 10.5995 23.0004 10.442L23.0022 10.4358" fill="#84BC92"/>
<path d="M23.003 10.4358C20.7198 11.0157 19.0263 13.9674 21.1677 16.5715L21.1587 16.6012" fill="#8BC79A"/>
<path d="M8.88052 22.026L8.88577 22.0297C9.06782 19.682 6.81335 17.1325 3.65913 18.3257L3.63379 18.3078" fill="#79AC86"/>
<path d="M10.6603 18.0788C11.8831 16.7611 13.6028 16.8977 13.8139 16.9184L13.818 16.9131C14.7063 19.0943 13.3346 22.2082 9.96676 22.0312L9.9479 22.0559C9.9445 22.0469 9.94141 22.038 9.93801 22.029C9.93183 22.0284 9.92534 22.0281 9.91916 22.0275L9.93152 22.0111C9.42153 20.6391 9.70125 19.1125 10.6603 18.0788Z" fill="#8BC79A"/>
<path d="M17.3764 19.4391C18.1046 18.1069 17.3893 16.6073 17.2982 16.4238L17.3013 16.4195C15.0863 16.0416 12.8387 17.8431 14.1606 20.7973L14.1455 20.8186C14.1544 20.8198 14.1634 20.8211 14.1724 20.8223C14.1752 20.8279 14.1776 20.8334 14.1801 20.839L14.19 20.8248C15.5673 21.0191 16.8052 20.484 17.3764 19.4391Z" fill="#8EB693"/>
<path d="M15.4283 20.6907C15.8947 19.3626 15.1715 18.2216 15.08 18.0829L15.0822 18.0782C13.2459 18.2602 11.5889 20.3481 12.9424 22.6155L12.9318 22.6374C12.9393 22.6365 12.9467 22.6353 12.9541 22.6343C12.9569 22.6387 12.9594 22.6427 12.9621 22.647L12.9689 22.6325C14.107 22.4842 15.0627 21.7325 15.4283 20.6907Z" fill="#79A084"/>
<path d="M12.9248 22.652C12.9322 22.6579 12.9403 22.6634 12.9477 22.6693C12.9464 22.6755 12.9449 22.6816 12.9434 22.6878L12.9625 22.6807C14.1237 23.5733 15.6655 23.7571 16.9364 23.1466C18.557 22.3684 18.9347 20.6858 18.9773 20.4779" fill="#79AC86"/>
<path d="M18.9779 20.4782L18.9838 20.476C17.1618 18.9835 13.78 19.3731 12.9542 22.6415L12.9248 22.652" fill="#79AC86"/>
<path d="M11.1695 17.549C10.0425 16.5313 8.41706 16.8786 8.21708 16.9246L8.21337 16.9206C7.33093 18.9862 8.56202 21.59 11.7438 20.9907L11.7608 21.0105C11.7642 21.0021 11.7672 20.9935 11.7706 20.9851C11.7765 20.9839 11.7827 20.9826 11.7886 20.9814L11.7771 20.9684C12.2865 19.6749 12.0535 18.347 11.1695 17.549Z" fill="#8EB693"/>
<path d="M10.2364 23.3023C11.9768 23.7531 13.3517 22.7116 13.5183 22.5803L13.5244 22.5825C13.096 20.2669 10.2614 18.3832 7.52045 20.3472L7.49139 20.3364C7.49324 20.3457 7.49572 20.3549 7.49757 20.3645C7.49263 20.3685 7.48737 20.3719 7.48242 20.3759L7.50159 20.383C7.81222 21.8138 8.87115 22.9486 10.2364 23.3023Z" fill="#79A084"/>
<path d="M1.36523 11.8325C2.70172 12.4319 4.24406 12.2533 5.33915 11.3651C6.73498 10.2325 6.71242 8.50851 6.70562 8.29626" fill="#84BC92"/>
<path d="M6.70623 8.29653L6.71148 8.29313C4.5927 7.2634 1.39366 8.42567 1.34822 11.7966L1.32227 11.8136C1.33092 11.8176 1.33988 11.8213 1.34853 11.8254C1.34853 11.8318 1.34853 11.838 1.34884 11.8442L1.36584 11.8328" fill="#8BC79A"/>
<path d="M3.13004 1.91122C4.01372 0.346385 5.71833 0.0806878 5.92881 0.0516465L5.93128 0.0457764C7.30115 1.96158 6.68916 5.30874 3.37174 5.91676L3.35938 5.94518C3.35382 5.93715 3.34887 5.92912 3.34362 5.92108C3.33743 5.92201 3.33126 5.92325 3.32477 5.92417L3.3331 5.90533C2.51866 4.68868 2.43676 3.13868 3.13004 1.91122Z" fill="#79A084"/>
<path d="M2.83434 7.70917C2.83341 7.70021 2.8331 7.69094 2.83248 7.68198C2.82722 7.67889 2.82166 7.67611 2.81641 7.67302L2.83124 7.66406C2.72801 6.2778 3.34371 5.07845 4.42458 4.57765C5.80249 3.93905 7.25241 4.75159 7.42951 4.85477L7.43415 4.85199" fill="#698B73"/>
<path d="M7.43478 4.85205C7.66597 7.08607 5.71904 9.20918 2.85721 7.69563L2.83496 7.70953" fill="#8EB693"/>
<path d="M5.89007 0.0213079L5.89315 0.0157471C3.57037 0.0552927 1.27603 2.50496 2.7411 5.48942L2.72595 5.51599" fill="#8EB693"/>
<path d="M0.939058 8.79928C0.940295 8.79186 0.942154 8.78445 0.943699 8.77734C0.939681 8.77425 0.935659 8.77147 0.931641 8.76869L0.946786 8.76282C1.16995 7.63793 1.98346 6.73426 3.04764 6.43828C4.40422 6.06074 5.49561 6.85722 5.6279 6.95763" fill="#79A084"/>
<path d="M5.62701 6.95754L5.63164 6.95569C5.32873 8.7751 3.13515 10.2902 0.961039 8.79024L0.938477 8.79919" fill="#698B73"/>
<path d="M0.694491 4.77084C1.57817 3.206 3.28278 2.94031 3.49326 2.91126L3.49573 2.9054C4.8656 4.8212 4.25362 8.16836 0.936198 8.77638L0.92383 8.8048C0.918267 8.79677 0.913321 8.78873 0.908066 8.7807C0.901885 8.78163 0.895707 8.78286 0.889216 8.78379L0.897562 8.76494C0.0831212 7.5483 0.00121135 5.9986 0.694491 4.77084Z" fill="#8BC79A"/>
<path d="M3.50368 2.89332L3.50615 2.88745C1.10857 3.15222 -0.954268 5.86357 0.938883 8.75565L0.926522 8.78407" fill="#79AC86"/>
<path d="M5.08789 18.6588C5.09716 18.6563 5.10613 18.6532 5.1154 18.6508C5.11973 18.6554 5.12344 18.6604 5.12776 18.6653L5.13364 18.6455C6.54153 18.2411 7.60447 17.11 7.8675 15.725C8.20286 13.9594 7.07222 12.6568 6.93005 12.4993" fill="#79AC86"/>
<path d="M6.92987 12.4992L6.93173 12.493C4.64851 13.0729 2.95503 16.0247 5.09637 18.6288L5.08741 18.6585" fill="#8BC79A"/>
<path d="M2.85612 12.8616C2.84685 12.8592 2.83789 12.8561 2.82862 12.8536C2.82429 12.8582 2.82058 12.8632 2.81625 12.8681L2.81038 12.8484C1.40249 12.4439 0.339549 11.3129 0.0765167 9.92785C-0.258841 8.1622 0.871797 6.85967 1.01398 6.7021L1.01212 6.69592" fill="#8EB693"/>
<path d="M1.01172 6.69592C3.29494 7.27582 4.98841 10.2275 2.84707 12.8317L2.85603 12.8613" fill="#79A084"/>
<path d="M3.56235 14.5154C2.58842 13.523 2.28458 12.2097 2.78685 11.1299C3.42697 9.75324 5.05925 9.43873 5.26108 9.4032" fill="#8EB693"/>
<path d="M5.26125 9.40357L5.26279 9.39832C6.88178 10.956 6.76526 13.8333 3.60177 14.5232L3.59373 14.5482C3.58724 14.5417 3.58105 14.5352 3.57456 14.5287C3.56869 14.53 3.56251 14.5312 3.55664 14.5321L3.5622 14.5158" fill="#698B73"/>
<path d="M2.82289 16.5848L2.83062 16.5706C2.27488 15.5671 2.3129 14.3523 2.93447 13.4397C3.72697 12.2762 5.0749 12.1807 5.24088 12.172L5.24334 12.1677" fill="#698B73"/>
<path d="M5.2437 12.1677C6.18702 13.7529 5.48942 16.3253 2.86034 16.582L2.8489 16.6033C2.84519 16.5968 2.84179 16.59 2.83809 16.5835C2.83314 16.5839 2.82819 16.5845 2.82324 16.5848" fill="#79A084"/>
<path d="M2.84148 16.6175C2.8322 16.615 2.82324 16.6119 2.81397 16.6095C2.80964 16.6141 2.80593 16.619 2.8016 16.624L2.79573 16.6042C1.38785 16.1998 0.3249 15.0687 0.0618683 13.6837C-0.27349 11.9181 0.857149 10.6155 0.999328 10.458L0.997472 10.4518" fill="#84BC92"/>
<path d="M0.99707 10.4518C3.28029 11.0317 4.97376 13.9834 2.83242 16.5875L2.84138 16.6172" fill="#8BC79A"/>
<path d="M5.106 18.626L5.09827 18.6118C5.65401 17.6084 5.616 16.3936 4.99442 15.4809C4.20193 14.3174 2.854 14.222 2.68802 14.2133L2.68555 14.209" fill="#8EB693"/>
<path d="M2.68523 14.209C1.7419 15.7942 2.43951 18.3665 5.06859 18.6233L5.08002 18.6446C5.08373 18.6381 5.08714 18.6313 5.09085 18.6248C5.09579 18.6251 5.10074 18.6257 5.10568 18.626" fill="#698B73"/>
<path d="M19.025 18.694L19.0328 18.6798C18.477 17.6763 18.515 16.4615 19.1366 15.5489C19.9291 14.3854 21.277 14.2899 21.443 14.2812" fill="#8EB693"/>
<path d="M21.4434 14.2812L21.4458 14.2769C22.3892 15.8621 21.6916 18.4344 19.0625 18.6911L19.051 18.7125C19.0473 18.706 19.0439 18.6992 19.0402 18.6927C19.0353 18.693 19.0303 18.6936 19.0254 18.6939" fill="#698B73"/>
<path d="M17.5947 20.4596C19.0026 20.0551 20.0656 18.9241 20.3286 17.5391C20.6639 15.7734 19.5333 14.4709 19.3911 14.3133L19.393 14.3071" fill="#79AC86"/>
<path d="M19.3927 14.3075C17.1094 14.8874 15.416 17.8391 17.5573 20.4432L17.5483 20.4729C17.5576 20.4704 17.5666 20.4673 17.5759 20.4649C17.5802 20.4695 17.5839 20.4744 17.5882 20.4794L17.5941 20.4596" fill="#698B73"/>
<path d="M5.98213 20.1472C5.988 20.146 5.99418 20.1448 6.00005 20.1432L5.98862 20.1303C6.49027 18.8339 6.24949 17.5073 5.36086 16.7145C4.22806 15.7036 2.60444 16.0601 2.40508 16.1074L2.40137 16.1034" fill="#79AC86"/>
<path d="M2.40092 16.1034C1.53054 18.1743 2.77677 20.7707 5.9551 20.1531L5.97241 20.1729C5.97581 20.1645 5.9789 20.1559 5.98199 20.1472" fill="#8BC79A"/>
<path d="M6.23633 19.8843L6.2388 19.8685C7.29371 19.4175 8.00986 18.435 8.0794 17.333C8.16811 15.9282 7.16266 15.0257 7.03717 14.917" fill="#698B73"/>
<path d="M7.03783 14.917L7.03876 14.9121C5.32055 15.5847 4.2916 18.0433 6.20948 19.8593L6.20547 19.8834C6.21257 19.8806 6.21906 19.8772 6.22617 19.8745C6.22988 19.8779 6.23359 19.8813 6.2373 19.8844" fill="#79A084"/>
<path d="M19.6705 20.889C21.176 19.9072 21.3321 18.1897 21.3473 17.9781L21.3528 17.975C19.3521 16.7315 16.0498 17.5567 15.6554 20.9048L15.6279 20.919C15.6363 20.9239 15.6446 20.9286 15.653 20.9332C15.6523 20.9394 15.6517 20.9459 15.6511 20.9521L15.6693 20.9425C16.9369 21.6772 18.4894 21.6592 19.6705 20.889Z" fill="#8BC79A"/>
<path d="M7.18666 18.922C7.97915 17.7585 9.32707 17.663 9.49305 17.6544L9.49553 17.65C10.4389 19.2352 9.74125 21.8076 7.11216 22.0643L7.10073 22.0856C7.09702 22.0791 7.09362 22.0723 7.08991 22.0658C7.08497 22.0662 7.08002 22.0668 7.07508 22.0671L7.0828 22.0529C6.52676 21.0494 6.56478 19.8346 7.18666 18.922Z" fill="#698B73"/>
<path d="M8.83092 22.1122C8.82196 22.1159 8.813 22.119 8.80403 22.1224C8.80372 22.1286 8.80341 22.1351 8.8028 22.1413L8.7861 22.1292C7.42149 22.6612 5.88996 22.4063 4.84031 21.4647C3.50259 20.2641 3.61108 18.5432 3.62838 18.3316L3.62313 18.3279" fill="#84BC92"/>
<path d="M3.62305 18.3279C5.79036 17.4047 8.92758 18.7249 8.80518 22.094L8.83021 22.1122" fill="#8BC79A"/>
<path d="M21.3453 17.946L21.3509 17.9429C19.3502 16.6994 16.0479 17.5246 15.6535 20.8727L15.626 20.8869" fill="#79AC86"/>
<path d="M12.0367 24.3122C14.7084 24.3122 16.8742 22.1474 16.8742 19.4769C16.8742 16.8064 14.7084 14.6415 12.0367 14.6415C9.36504 14.6415 7.19922 16.8064 7.19922 19.4769C7.19922 22.1474 9.36504 24.3122 12.0367 24.3122Z" fill="#55412C"/>
<path d="M12.067 22.8616C13.954 22.8616 15.4837 21.3326 15.4837 19.4465C15.4837 17.5604 13.954 16.0314 12.067 16.0314C10.1801 16.0314 8.65039 17.5604 8.65039 19.4465C8.65039 21.3326 10.1801 22.8616 12.067 22.8616Z" fill="#8C7659"/>
<path d="M13.1674 21.5858L12.2027 21.0893C12.0946 21.0337 11.9669 21.0346 11.8615 21.0918L10.9216 21.6018C10.6561 21.7458 10.3362 21.5187 10.38 21.2172L10.5358 20.1501C10.5531 20.0305 10.5108 19.9088 10.4224 19.8248L9.6333 19.0756C9.41045 18.8639 9.52141 18.4916 9.82092 18.4456L10.882 18.2825C11.001 18.2643 11.1024 18.1879 11.1531 18.0789L11.6056 17.1057C11.7332 16.831 12.1218 16.8283 12.263 17.1011L12.7631 18.0675C12.819 18.1759 12.9241 18.2504 13.0441 18.267L14.1129 18.415C14.4145 18.4567 14.5437 18.8272 14.3314 19.0419L13.5794 19.8022C13.495 19.8875 13.4585 20.0098 13.482 20.1291L13.6901 21.1937C13.7485 21.494 13.4397 21.7257 13.1674 21.5858Z" fill="#55412C"/>
</svg>
