<svg width="50" height="62" viewBox="0 0 50 62" fill="none" xmlns="http://www.w3.org/2000/svg">
<path d="M25.0855 0.167397C25.1755 0.167655 25.2655 0.167913 25.3582 0.168179C26.6686 0.174209 27.9127 0.221635 29.1848 0.563861C29.2768 0.58764 29.3687 0.61142 29.4635 0.635919C32.9208 1.5418 36.009 3.27499 38.6233 5.71182C38.8524 5.92466 39.0877 6.12417 39.3283 6.32381C41.7419 8.4351 43.657 11.1906 45.2229 13.9688C45.2741 14.0596 45.3253 14.1504 45.3781 14.2439C46.3174 15.9288 47.0657 17.6669 47.7363 19.4744C47.7726 19.5721 47.8088 19.6697 47.8461 19.7703C49.1425 23.3225 49.7976 27.0971 49.8009 30.8747C49.801 30.9579 49.8011 31.0411 49.8012 31.1268C49.7944 35.5684 48.7449 39.9627 45.8213 43.4119C45.745 43.5032 45.745 43.5032 45.6672 43.5964C44.3694 45.1368 42.7135 46.4738 40.8693 47.3041C40.1011 47.6679 40.1011 47.6679 39.6719 48.3738C39.5625 48.8303 39.5225 49.2887 39.4779 49.7553C39.4369 49.9023 39.4369 49.9023 39.3951 50.0522C39.2667 50.5309 39.322 50.7645 39.5578 51.207C39.7409 51.4974 39.9348 51.7796 40.1306 52.0616C41.3511 53.8202 42.7127 56.5488 42.4701 58.7319C42.1556 59.9104 41.7099 60.6158 40.6589 61.2476C40.2857 61.4436 39.9818 61.4998 39.5675 61.5007C39.4632 61.5013 39.3588 61.5018 39.2513 61.5023C39.1366 61.5023 39.0219 61.5023 38.9037 61.5023C38.7818 61.5027 38.66 61.5032 38.5345 61.5036C38.1243 61.5049 37.7142 61.5054 37.304 61.5059C37.0107 61.5066 36.7175 61.5074 36.4242 61.5082C35.5426 61.5105 34.661 61.5118 33.7795 61.5129C33.3643 61.5134 32.949 61.514 32.5338 61.5147C31.1534 61.5167 29.7729 61.5184 28.3925 61.5193C28.0343 61.5195 27.6761 61.5198 27.3179 61.52C27.1843 61.5201 27.1843 61.5201 27.0481 61.5202C25.6061 61.5212 24.1641 61.5242 22.7221 61.5281C21.2414 61.532 19.7607 61.5342 18.28 61.5346C17.4487 61.5348 16.6174 61.5359 15.7862 61.5389C15.0041 61.5418 14.2221 61.5422 13.44 61.541C13.153 61.5409 12.866 61.5417 12.579 61.5434C12.1871 61.5455 11.7952 61.5446 11.4032 61.543C11.2331 61.545 11.2331 61.545 11.0596 61.547C10.0814 61.5375 9.3057 61.2152 8.59859 60.5272C7.95897 59.6774 7.69041 58.8439 7.76078 57.7744C7.81856 57.4137 7.90494 57.0646 8.00015 56.7121C8.02649 56.614 8.05282 56.5158 8.07995 56.4147C8.5889 54.6121 9.44072 52.666 10.6408 51.214C10.9637 50.6828 10.8759 50.3314 10.753 49.7553C10.7394 49.606 10.7258 49.4566 10.7118 49.3028C10.6362 48.6863 10.5506 48.0867 10.0676 47.6562C9.54071 47.3059 8.96783 47.0468 8.39556 46.7799C5.80953 45.5 3.79815 43.0523 2.49454 40.5394C2.42202 40.4021 2.34951 40.2648 2.2748 40.1233C0.861991 37.3439 0.432654 34.1663 0.429932 31.0841C0.429851 31.001 0.429771 30.9178 0.429688 30.8322C0.442168 22.6486 3.62118 14.1812 9.18627 8.13689C9.41949 7.88318 9.64556 7.62483 9.87027 7.36359C10.6498 6.47367 11.5055 5.73175 12.4286 4.99229C12.5235 4.9133 12.6184 4.8343 12.7161 4.75291C14.1402 3.57763 15.6644 2.65637 17.3358 1.88042C17.4694 1.81655 17.603 1.75267 17.7406 1.68686C18.5675 1.3096 19.4039 1.02724 20.2756 0.773314C20.3759 0.743827 20.4762 0.714339 20.5796 0.683958C22.0722 0.266559 23.544 0.159437 25.0855 0.167397Z" fill="#F9D2CA"/>
<path d="M25.0855 0.167397C25.1755 0.167655 25.2655 0.167913 25.3582 0.168179C26.6686 0.174209 27.9127 0.221635 29.1848 0.563861C29.2768 0.587641 29.3687 0.61142 29.4635 0.635919C32.9208 1.5418 36.009 3.27499 38.6233 5.71182C38.8524 5.92466 39.0877 6.12417 39.3283 6.32381C41.7419 8.4351 43.657 11.1906 45.2229 13.9688C45.2741 14.0596 45.3253 14.1504 45.3781 14.2439C46.3174 15.9288 47.0657 17.6669 47.7363 19.4744C47.7726 19.5721 47.8088 19.6697 47.8461 19.7703C49.1425 23.3225 49.7976 27.0971 49.8009 30.8747C49.801 30.9579 49.8011 31.0411 49.8012 31.1268C49.7944 35.5684 48.7449 39.9627 45.8213 43.4119C45.745 43.5032 45.745 43.5032 45.6672 43.5964C44.1228 45.4295 42.1103 46.8047 39.9566 47.8403C39.8777 47.8403 39.7987 47.8403 39.7173 47.8403C39.7069 47.7578 39.6966 47.6752 39.686 47.5902C39.5172 46.4615 39.1529 45.611 38.281 44.8481C38.1996 44.7667 38.1181 44.6852 38.0342 44.6013C36.9853 43.9095 35.798 43.8073 34.5707 43.771C34.9218 43.486 35.2955 43.2718 35.6934 43.0583C36.7164 42.5074 37.6339 41.8877 38.5204 41.1378C38.5821 41.0857 38.6438 41.0335 38.7074 40.9798C42.12 38.0556 44.155 33.7503 44.5048 29.2888C44.5644 27.9339 44.5363 26.5748 44.5048 25.2194C44.3995 25.1852 44.2942 25.151 44.1857 25.1157C43.8332 24.9959 43.4906 24.8654 43.1461 24.7243C35.3539 21.5548 27.0238 20.3349 18.6523 21.5091C18.4359 21.5368 18.2194 21.5644 18.0029 21.5919C14.0936 22.1101 10.1945 23.2721 6.61843 24.9277C5.98726 25.2194 5.98726 25.2194 5.72609 25.2194C5.59311 30.927 6.63042 35.8948 10.6333 40.1803C12.093 41.6606 13.8406 42.6817 15.6601 43.6513C15.6601 43.6908 15.6601 43.7303 15.6601 43.771C15.5531 43.7754 15.446 43.7799 15.3357 43.7845C13.8794 43.8637 12.6937 44.0664 11.5908 45.0875C11.0777 45.7671 10.6457 46.5414 10.5585 47.399C10.5437 47.5446 10.5288 47.6903 10.5136 47.8403C7.34114 46.8848 4.39684 44.0187 2.8273 41.1744C2.71463 40.9636 2.60457 40.7515 2.49454 40.5394C2.42202 40.4021 2.34951 40.2648 2.2748 40.1233C0.861991 37.3439 0.432654 34.1663 0.429932 31.0841C0.429851 31.001 0.429771 30.9178 0.429688 30.8322C0.442168 22.6486 3.62118 14.1812 9.18627 8.13689C9.41949 7.88318 9.64556 7.62483 9.87027 7.36359C10.6498 6.47367 11.5055 5.73175 12.4286 4.99229C12.5235 4.9133 12.6184 4.8343 12.7161 4.75292C14.1402 3.57763 15.6644 2.65637 17.3358 1.88042C17.4694 1.81655 17.603 1.75267 17.7406 1.68686C18.5675 1.3096 19.4039 1.02724 20.2756 0.773314C20.3759 0.743827 20.4762 0.714339 20.5796 0.683958C22.0722 0.266559 23.544 0.159437 25.0855 0.167397Z" fill="#76718C"/>
<path d="M14.3082 43.873C14.4505 43.8723 14.4505 43.8723 14.5956 43.8717C14.9145 43.8703 15.2334 43.8699 15.5523 43.8694C15.7806 43.8687 16.0088 43.8679 16.2371 43.867C16.9877 43.8645 17.7382 43.8633 18.4888 43.8621C18.7472 43.8616 19.0056 43.8611 19.264 43.8606C20.4782 43.8583 21.6923 43.8566 22.9064 43.8556C24.3077 43.8545 25.7089 43.8513 27.1101 43.8465C28.1932 43.8429 29.2764 43.8411 30.3595 43.8407C31.0064 43.8404 31.6532 43.8393 32.3 43.8363C32.9089 43.8335 33.5178 43.833 34.1267 43.8343C34.3497 43.8343 34.5728 43.8336 34.7958 43.8319C36.9428 43.817 36.9428 43.817 37.8024 44.3694C37.8979 44.4227 37.9934 44.4761 38.0918 44.5311C39.0281 45.2049 39.58 46.2273 39.8147 47.3466C39.9022 48.2341 39.6443 49.2013 39.3892 50.0512C39.2724 50.5321 39.3216 50.7636 39.558 51.207C39.7411 51.4974 39.935 51.7796 40.1307 52.0616C41.3512 53.8201 42.7128 56.5487 42.4702 58.7318C42.1557 59.9104 41.71 60.6158 40.659 61.2476C40.2858 61.4436 39.9819 61.4997 39.5677 61.5007C39.4633 61.5012 39.359 61.5018 39.2514 61.5023C39.1367 61.5023 39.022 61.5023 38.9038 61.5022C38.782 61.5027 38.6602 61.5031 38.5347 61.5036C38.1245 61.5049 37.7143 61.5054 37.3042 61.5058C37.0109 61.5066 36.7176 61.5074 36.4243 61.5082C35.5427 61.5105 34.6612 61.5118 33.7796 61.5128C33.3644 61.5134 32.9492 61.514 32.534 61.5146C31.1535 61.5167 29.7731 61.5184 28.3926 61.5193C28.0344 61.5195 27.6762 61.5197 27.318 61.52C27.1845 61.52 27.1845 61.52 27.0482 61.5201C25.6062 61.5211 24.1642 61.5242 22.7222 61.528C21.2415 61.532 19.7608 61.5342 18.2801 61.5345C17.4488 61.5348 16.6176 61.5359 15.7863 61.5389C15.0043 61.5418 14.2222 61.5422 13.4401 61.541C13.1531 61.5409 12.8662 61.5417 12.5792 61.5433C12.1872 61.5454 11.7953 61.5446 11.4033 61.543C11.29 61.5443 11.1766 61.5456 11.0597 61.547C10.0816 61.5375 9.30585 61.2151 8.59873 60.5271C7.95911 59.6774 7.69055 58.8439 7.76092 57.7743C7.81871 57.4137 7.90509 57.0645 8.0003 56.7121C8.02663 56.614 8.05296 56.5158 8.0801 56.4147C8.58905 54.612 9.44087 52.6659 10.6409 51.214C11.0319 50.5707 10.8074 50.0022 10.6545 49.3069C10.3652 47.9478 10.3384 46.9231 11.0626 45.6943C11.444 45.136 11.7967 44.7558 12.3764 44.3993C12.4901 44.3283 12.6038 44.2573 12.7209 44.1842C13.2544 43.8813 13.7113 43.8728 14.3082 43.873Z" fill="#F2F2FB"/>
<path d="M25.1154 0.204817C24.8453 0.622987 24.5771 1.00514 24.2327 1.36429C21.5706 4.32326 19.5807 8.02192 18.2747 11.7642C18.2103 11.9486 18.1447 12.1326 18.0775 12.316C16.9814 15.3132 16.498 18.5717 16.3783 21.7485C15.7075 21.9895 15.039 22.1746 14.3432 22.3275C11.6066 22.9328 8.90017 23.8124 6.37362 25.0301C5.96547 25.2195 5.96547 25.2195 5.72609 25.2195C5.59311 30.9271 6.63042 35.8948 10.6333 40.1804C12.093 41.6606 13.8406 42.6817 15.6601 43.6513C15.6601 43.6908 15.6601 43.7303 15.6601 43.771C15.5531 43.7755 15.446 43.7799 15.3357 43.7845C13.8794 43.8637 12.6937 44.0664 11.5908 45.0875C11.0777 45.7671 10.6457 46.5414 10.5585 47.399C10.5437 47.5446 10.5288 47.6903 10.5136 47.8403C7.34114 46.8848 4.39684 44.0187 2.8273 41.1744C2.71463 40.9637 2.60457 40.7515 2.49454 40.5394C2.42202 40.4021 2.34951 40.2648 2.2748 40.1233C0.861991 37.344 0.432654 34.1663 0.429932 31.0841C0.429851 31.001 0.429771 30.9178 0.429688 30.8322C0.442168 22.6486 3.62118 14.1812 9.18627 8.1369C9.41949 7.8832 9.64556 7.62485 9.87027 7.36361C10.6498 6.47369 11.5055 5.73176 12.4286 4.99231C12.5235 4.91331 12.6184 4.83432 12.7161 4.75293C14.1402 3.57765 15.6644 2.65639 17.3358 1.88044C17.4694 1.81656 17.603 1.75269 17.7406 1.68688C20.1038 0.608665 22.5318 0.149121 25.1154 0.204817Z" fill="#5C566D"/>
<path d="M16.2586 21.8682C16.2981 23.1716 16.3376 24.475 16.3783 25.8178C17.0154 25.882 17.0154 25.882 17.6528 25.9431C18.2115 26.004 18.6458 26.1117 19.1311 26.4163C19.3921 26.8077 19.4462 26.9196 19.3705 27.3738C19.1335 27.7178 18.9542 27.9377 18.5303 28.018C17.8736 28.0341 17.2497 27.9002 16.6177 27.7328C16.6177 27.8908 16.6177 28.0488 16.6177 28.2116C16.6899 28.2046 16.7621 28.1977 16.8365 28.1905C16.9321 28.1851 17.0278 28.1797 17.1263 28.1742C17.2208 28.1672 17.3152 28.1603 17.4125 28.1531C17.6949 28.2116 17.6949 28.2116 17.9656 28.4496C18.2399 28.9249 18.2488 29.2881 18.2409 29.8274C18.2452 29.9614 18.2452 29.9614 18.2496 30.0981C18.2482 30.5983 18.2128 30.794 17.8968 31.2028C17.5752 31.4431 17.5752 31.4431 17.1488 31.5179C16.7374 31.4431 16.7374 31.4431 16.4456 31.1589C16.2586 30.8447 16.2586 30.8447 16.2586 30.6053C14.1146 30.5151 14.1146 30.5151 12.2566 31.488C11.6601 32.0604 11.4531 32.5145 11.4188 33.3432C11.4419 34.1234 11.6049 34.667 12.143 35.239C13.1548 36.1567 14.19 36.2981 15.5208 36.2722C16.3728 36.2255 17.2217 35.9172 17.822 35.2956C17.9368 35.166 17.9368 35.166 18.0539 35.0338C18.1724 35.0338 18.2909 35.0338 18.413 35.0338C18.4625 35.1554 18.4625 35.1554 18.5129 35.2795C19.6872 38.1506 21.0312 40.731 22.7926 43.2806C22.9611 43.5316 22.9611 43.5316 23.0808 43.7709C22.1547 43.8018 21.2287 43.825 20.3022 43.8391C19.8717 43.8459 19.4415 43.8551 19.0112 43.8703C16.8088 43.9457 15.0915 43.8161 13.2664 42.4544C13.1847 42.3954 13.103 42.3365 13.0188 42.2757C12.5231 41.9171 12.0524 41.5392 11.5908 41.1378C11.4965 41.0573 11.4965 41.0573 11.4003 40.9752C7.96669 38.0286 5.97424 33.7757 5.60644 29.2888C5.46337 26.1317 5.46337 26.1317 5.72613 25.2194C6.02955 25.0156 6.02955 25.0156 6.45173 24.8304C6.52985 24.796 6.60796 24.7616 6.68845 24.7262C13.3193 21.8682 13.3193 21.8682 16.2586 21.8682Z" fill="#FFC2B5"/>
<path d="M14.0203 43.8771C14.1496 43.8771 14.279 43.8771 14.4123 43.8771C14.5518 43.8777 14.6913 43.8784 14.8351 43.879C14.978 43.8792 15.121 43.8793 15.2683 43.8795C15.7256 43.8802 16.1829 43.8817 16.6402 43.8832C16.95 43.8838 17.2597 43.8843 17.5694 43.8848C18.3294 43.8862 19.0894 43.8882 19.8493 43.8907C19.4903 44.1301 19.4903 44.1301 19.2532 44.2465C18.2984 44.718 17.6068 45.4022 17.1564 46.3742C16.7283 47.6586 17.0141 48.9027 17.3957 50.1593C17.4617 50.3868 17.5277 50.6143 17.5932 50.842C17.6384 50.9993 17.684 51.1566 17.7297 51.3138C17.9566 52.0963 18.1604 52.8841 18.3612 53.6737C18.4596 54.0602 18.5591 54.4464 18.6585 54.8327C18.7165 55.0582 18.7165 55.0582 18.7757 55.2883C18.814 55.4373 18.8524 55.5862 18.8918 55.7397C18.9491 55.9627 18.9491 55.9627 19.0075 56.1902C19.1174 56.6163 19.2288 57.0421 19.3407 57.4677C19.3729 57.5938 19.4052 57.7199 19.4384 57.8498C19.7604 59.0647 20.1661 60.1029 21.2706 60.789C21.7033 61.038 22.1166 61.2373 22.6021 61.365C22.6021 61.4045 22.6021 61.444 22.6021 61.4847C20.9957 61.4958 19.3893 61.5043 17.7829 61.5095C17.0369 61.512 16.291 61.5154 15.545 61.5208C14.8249 61.526 14.1047 61.5289 13.3845 61.5301C13.1101 61.531 12.8356 61.5327 12.5611 61.5353C12.1761 61.5388 11.7911 61.5393 11.406 61.5391C11.2931 61.5408 11.1801 61.5425 11.0637 61.5443C10.0827 61.5382 9.30786 61.2172 8.59873 60.5272C7.95911 59.6775 7.69055 58.844 7.76092 57.7744C7.81871 57.4138 7.90509 57.0646 8.0003 56.7122C8.02663 56.614 8.05296 56.5159 8.0801 56.4147C8.58905 54.6121 9.44087 52.666 10.6409 51.214C11.0319 50.5707 10.8074 50.0023 10.6545 49.307C10.3652 47.9479 10.3384 46.9232 11.0626 45.6944C11.444 45.136 11.7967 44.7558 12.3764 44.3994C12.4901 44.3284 12.6038 44.2574 12.7209 44.1843C13.1747 43.9266 13.5072 43.8759 14.0203 43.8771Z" fill="#D8D8FA"/>
<path d="M44.5044 25.3391C45.258 25.5632 45.9251 25.8534 46.6064 26.2442C46.6978 26.2965 46.7893 26.3487 46.8836 26.4024C47.0733 26.5114 47.2626 26.6209 47.4517 26.7309C47.7317 26.8926 48.0141 27.0493 48.2969 27.206C48.4716 27.3065 48.6462 27.4073 48.8206 27.5084C48.9025 27.5528 48.9844 27.5972 49.0689 27.6429C49.4747 27.8855 49.6352 28.0345 49.7608 28.4949C49.7683 28.6796 49.7709 28.8646 49.7706 29.0494C49.7747 29.178 49.7788 29.3065 49.783 29.4389C49.7957 29.9076 49.8001 30.3759 49.8005 30.8447C49.8006 30.9291 49.8007 31.0136 49.8008 31.1005C49.794 35.5524 48.7523 39.9536 45.8209 43.4119C45.77 43.4728 45.7192 43.5337 45.6667 43.5964C44.1224 45.4295 41.9902 47.1039 39.8366 48.1395C39.7576 48.1395 39.7355 47.9888 39.7169 47.8403C39.7065 47.7578 39.6962 47.6752 39.6855 47.5902C39.5168 46.4615 39.1525 45.611 38.2806 44.8481C38.1992 44.7667 38.1177 44.6852 38.0338 44.6013C36.9848 43.9094 35.7976 43.8073 34.5703 43.7709C34.9214 43.4859 35.2951 43.2718 35.693 43.0583C36.716 42.5074 37.6334 41.8877 38.52 41.1378C38.5817 41.0857 38.6434 41.0335 38.7069 40.9798C42.1221 38.0534 44.15 33.7519 44.5044 29.2888C44.5634 27.9737 44.5361 26.6546 44.5044 25.3391Z" fill="#5C576E"/>
<path d="M5.72604 25.3391C5.72353 25.4431 5.72102 25.5471 5.71844 25.6542C5.60301 31.2009 6.76153 36.0352 10.6332 40.1803C12.0929 41.6606 13.8406 42.6817 15.6601 43.6513C15.6601 43.6908 15.6601 43.7303 15.6601 43.7709C15.4995 43.7777 15.4995 43.7777 15.3356 43.7845C13.8793 43.8637 12.6936 44.0664 11.5907 45.0875C11.0776 45.767 10.6456 46.5414 10.5584 47.399C10.5436 47.5446 10.5288 47.6903 10.5135 47.8403C7.34109 46.8848 4.39679 44.0187 2.82725 41.1744C2.71457 40.9636 2.60452 40.7515 2.49448 40.5394C2.38571 40.3334 2.38571 40.3334 2.27474 40.1233C0.879581 37.3786 0.435038 34.2419 0.444195 31.1963C0.44484 30.9411 0.444196 30.6859 0.443436 30.4307C0.442859 30.1077 0.446895 29.7858 0.4534 29.4628C0.465379 29.0681 0.465379 29.0681 0.438848 28.7497C0.434085 28.5085 0.434085 28.5085 0.579486 28.0919C1.00342 27.7251 1.47357 27.4637 1.96337 27.1943C2.09861 27.1167 2.23385 27.0392 2.37319 26.9593C5.22533 25.3391 5.22533 25.3391 5.72604 25.3391Z" fill="#4F4B62"/>
<path d="M39.2704 50.5931C39.7832 51.0553 40.1315 51.5362 40.4786 52.1266C40.5581 52.2614 40.5581 52.2614 40.6391 52.3988C41.4243 53.7574 42.0574 55.1411 42.4718 56.6515C42.4974 56.7445 42.5231 56.8374 42.5494 56.9333C42.8527 58.1289 42.7382 59.1682 42.0904 60.2453C41.6346 60.8338 40.9623 61.2396 40.2555 61.4709C40.0458 61.4815 39.8357 61.4851 39.6257 61.4846C39.4976 61.4846 39.3694 61.4846 39.2374 61.4846C39.0992 61.484 38.9611 61.4834 38.8187 61.4827C38.6063 61.4825 38.6063 61.4825 38.3897 61.4822C37.9367 61.4815 37.4838 61.48 37.0309 61.4785C36.7241 61.4779 36.4173 61.4773 36.1105 61.4768C35.3579 61.4755 34.6052 61.4735 33.8525 61.4709C34.1281 61.3339 34.4021 61.2051 34.6861 61.0852C35.7958 60.5944 36.3863 60.1036 36.8659 58.9984C37.4381 57.4849 37.7828 55.8862 38.1708 54.3196C38.8362 51.6372 38.8362 51.6372 39.2704 50.5931Z" fill="#5C576E"/>
<path d="M10.9925 50.7128C11.2319 50.8325 11.2319 50.8325 11.3064 51.0373C11.3271 51.1255 11.3479 51.2138 11.3693 51.3047C11.3931 51.403 11.4168 51.5014 11.4413 51.6027C11.466 51.709 11.4907 51.8152 11.5161 51.9246C11.5693 52.1455 11.6226 52.3663 11.676 52.5871C11.7022 52.6963 11.7284 52.8056 11.7554 52.9182C11.8894 53.4692 12.0384 54.0159 12.1865 54.5633C12.2754 54.8958 12.362 55.2284 12.4465 55.562C13.0637 58.5749 13.0637 58.5749 14.9496 60.8114C15.336 61.0299 15.7244 61.2068 16.139 61.3649C16.139 61.4044 16.139 61.4439 16.139 61.4846C15.3043 61.4968 14.4696 61.5052 13.6348 61.5109C13.3511 61.5133 13.0674 61.5166 12.7837 61.5207C12.3749 61.5266 11.9661 61.5293 11.5573 61.5314C11.3683 61.5351 11.3683 61.5351 11.1756 61.5389C10.1363 61.5392 9.35332 61.2613 8.59873 60.5271C7.95911 59.6774 7.69055 58.8439 7.76092 57.7743C7.81871 57.4137 7.90509 57.0645 8.0003 56.7121C8.02663 56.6139 8.05296 56.5158 8.0801 56.4147C8.65252 54.3872 9.65462 52.3445 10.9925 50.7128Z" fill="#4F4B63"/>
<path d="M16.2583 30.6054C16.3224 30.7239 16.3866 30.8424 16.4528 30.9644C16.6877 31.3424 16.6877 31.3424 16.982 31.3679C17.074 31.3705 17.1659 31.3732 17.2606 31.3759C17.5995 31.3909 17.7642 31.4046 18.0353 31.6138C18.559 32.2147 18.8348 32.7595 18.8086 33.5765C18.6969 34.3645 18.2975 35.0331 17.7127 35.5635C16.5927 36.3827 15.4371 36.4768 14.1039 36.3504C13.1522 36.1847 12.4333 35.666 11.785 34.9665C11.2934 34.2292 11.2429 33.5066 11.3511 32.6401C11.6896 31.7319 12.4639 31.0902 13.3184 30.6802C14.1826 30.3588 15.3829 30.3136 16.2583 30.6054Z" fill="#FEFDFD"/>
<path d="M37.8475 31.2936C38.4202 31.7673 38.8184 32.2366 38.9326 32.987C38.9687 33.9104 38.8191 34.5743 38.1939 35.2615C37.2118 36.1887 36.3238 36.4187 35.0015 36.3983C33.7966 36.3531 32.9219 36.0282 32.0576 35.1535C31.5963 34.4609 31.3503 33.7163 31.4592 32.8794C31.6508 32.3303 31.9288 31.7728 32.4167 31.4432C32.5956 31.4223 32.7754 31.408 32.9553 31.3983C33.2375 31.3883 33.2375 31.3883 33.4939 31.3235C33.7755 30.9759 33.7755 30.9759 33.9726 30.6054C35.2466 30.1125 36.7711 30.5572 37.8475 31.2936Z" fill="#FEFDFD"/>
<path d="M25.9902 51.4534C26.4109 51.7372 26.6836 52.0549 26.9103 52.5082C26.9852 53.1802 26.983 53.7919 26.5984 54.3666C26.1667 54.8225 25.6574 54.9959 25.0476 55.0814C24.3765 54.9838 23.9764 54.7254 23.5067 54.2436C23.2295 53.6228 23.1998 53.0566 23.3197 52.3885C23.886 51.3307 24.8945 51.0607 25.9902 51.4534Z" fill="#78748E"/>
<path d="M26.8347 29.9868C27.0306 30.1266 27.0306 30.1266 27.27 30.4857C27.3438 30.971 27.3083 31.1492 27.0231 31.5554C26.6715 31.8023 26.6715 31.8023 26.2376 31.7873C25.981 31.7208 25.7261 31.6467 25.4746 31.5629C24.9159 31.5202 24.9159 31.5202 24.3975 31.6901C24.0119 31.8708 23.7227 31.785 23.3203 31.6826C23.015 31.4167 22.9692 31.2507 22.9014 30.8522C22.9823 30.3566 23.1723 30.1971 23.5596 29.8873C24.5509 29.389 25.8606 29.5026 26.8347 29.9868Z" fill="#2D3546"/>
<path d="M35.0042 25.1745C35.2206 25.5483 35.2384 25.7508 35.1688 26.1769C34.9774 26.5207 34.8151 26.7289 34.4399 26.8682C34.133 26.9424 33.827 27 33.5156 27.0521C33.4106 27.0723 33.3056 27.0924 33.1975 27.1131C32.6153 27.2198 32.0517 27.3065 31.4585 27.2541C31.0994 26.9399 31.0994 26.9399 30.8601 26.536C30.8451 26.162 30.8451 26.162 30.9797 25.8179C31.4362 25.3657 31.8796 25.2286 32.4983 25.1297C32.625 25.1081 32.625 25.1081 32.7544 25.0861C34.4272 24.8173 34.4272 24.8173 35.0042 25.1745Z" fill="#2E3546"/>
<path d="M16.8565 25.8179C17.0173 25.8414 17.1781 25.8644 17.339 25.8871C17.5099 25.9136 17.6807 25.9404 17.8514 25.9675C17.933 25.9791 18.0146 25.9907 18.0987 26.0026C18.6941 26.1069 18.9924 26.3083 19.37 26.7754C19.4448 27.0746 19.4448 27.0746 19.37 27.3738C19.1381 27.7105 19.1381 27.7105 18.7715 27.9723C18.0695 28.0644 17.4006 27.9393 16.7069 27.8227C16.5839 27.8031 16.5839 27.8031 16.4583 27.7832C15.9155 27.682 15.5702 27.5274 15.1809 27.1345C15.0463 26.723 15.0463 26.723 15.0612 26.2967C15.5339 25.5144 16.0686 25.6707 16.8565 25.8179Z" fill="#2D3445"/>
<path d="M17.2163 28.1443C17.2953 28.1417 17.3743 28.1391 17.4557 28.1364C17.8469 28.2594 17.9665 28.4622 18.1738 28.8101C18.2439 29.1514 18.2462 29.4799 18.2411 29.8274C18.244 29.9167 18.2468 30.0061 18.2498 30.0981C18.2485 30.5983 18.213 30.7941 17.897 31.2029C17.5754 31.4432 17.5754 31.4432 17.149 31.518C16.7376 31.4432 16.7376 31.4432 16.4762 31.2071C16.1804 30.7141 16.188 30.3241 16.199 29.7601C16.1971 29.664 16.1953 29.568 16.1934 29.469C16.1964 29.015 16.2053 28.7662 16.472 28.3884C16.7494 28.2038 16.8868 28.1437 17.2163 28.1443Z" fill="#2F3647"/>
<path d="M33.4939 28.2117C33.7896 28.4108 33.948 28.5654 34.0182 28.922C34.0373 29.2029 34.0379 29.4786 34.0325 29.7601C34.0343 29.8557 34.0362 29.9513 34.0381 30.0497C34.0349 30.5282 34.006 30.789 33.7557 31.2076C33.4939 31.4432 33.4939 31.4432 33.075 31.5105C32.6561 31.4432 32.6561 31.4432 32.3942 31.2707C32.0662 30.8077 32.1074 30.3811 32.1175 29.8274C32.1156 29.7251 32.1138 29.6228 32.1119 29.5175C32.1148 29.0457 32.1169 28.7757 32.3942 28.3837C32.78 28.1302 33.043 28.1472 33.4939 28.2117Z" fill="#2B3445"/>
</svg>
